<mxfile host="app.diagrams.net" agent="Mozilla/5.0 (Windows NT 10.0; Win64; x64) AppleWebKit/537.36 (KHTML, like Gecko) Chrome/135.0.0.0 Safari/537.36" version="26.2.13">
  <diagram name="Page-1" id="ndPca3b3rZ0NURSr1W95">
    <mxGraphModel dx="985" dy="564" grid="1" gridSize="10" guides="1" tooltips="1" connect="1" arrows="1" fold="1" page="1" pageScale="1" pageWidth="827" pageHeight="1169" math="0" shadow="0">
      <root>
        <mxCell id="0" />
        <mxCell id="1" parent="0" />
        <mxCell id="lw9uACYRkFeqBbF8YDV_-14" value="" style="rounded=1;whiteSpace=wrap;html=1;" vertex="1" parent="1">
          <mxGeometry x="160" y="70" width="950" height="260" as="geometry" />
        </mxCell>
        <mxCell id="lw9uACYRkFeqBbF8YDV_-3" value="" style="rounded=1;whiteSpace=wrap;html=1;" vertex="1" parent="1">
          <mxGeometry x="190" y="90" width="890" height="210" as="geometry" />
        </mxCell>
        <mxCell id="lw9uACYRkFeqBbF8YDV_-4" value="" style="shape=image;verticalLabelPosition=bottom;labelBackgroundColor=default;verticalAlign=top;aspect=fixed;imageAspect=0;image=data:image/png,iVBORw0KGgoAAAANSUhEUgAAAK8AAADLCAYAAAAY98M5AAAAAXNSR0IArs4c6QAAAARnQU1BAACxjwv8YQUAAAAJcEhZcwAADsMAAA7DAcdvqGQAAAt/SURBVHhe7d17bFPnGcfxx/ElCYlDQhLCLSEhiDgs0AKbBFQTE2yMsYp1l2aoMCLBRMcmsa3ardI6Fdb9USFE06xVt1YFNpjGNESRVrEBWtcROujahZuKuoRwyw2aC0Gx4/i6857zhsTxexxYSOzH/n2il5zzHtNWytdw/PbYxxLWEABDafI7ADuIF9hCvMAW4gW2EC+whXiBLcQLbCFeYAvxAluIF9hCvMAW4gW2EC+whXiBLcQLbCFeYAvxAluIF9hCvMAW4gW2EC+whXiBLcQLbCFeYAvxAluIF9hCvMAW4gW2EC+whXiBLcQLbCFeYAvxAluIF9hCvMAW4gW2EC+whXiBLcQLbCFeYAvxAluIF9hCvMAW4gW2EC+whXiBLUtYI7dZOnz4MDVfvyr3UseSRxfTypUr5V5qSop4/3z5BKXPypEzyc996TZtW7sJ8SZLvJXPrJIzye/iL95GvBqc8wJbiBfYQrzAFuIFthAvsJX0qw1HN/yautpuyb3k4G65Q0W5BZSTo14ezMrMohN/PyH3kldKxPvLx3ZQSV6xnOGvv62XCifnk9PplDND3D43bTm0OSXiTZnTBrvVkRIjleCcF9hCvMAW4gW2EC+wlTKrDeUF5XJmyMc3L1NrZ4vc48PX7aacSU7KzMyUM0Pcvj6qq6+jnS/slDNq69atk1t8pXy8dafrKLN0ipzhIeQLkN1qJ6vVKmeGBEMBauxspKoFVXIm2sqZn6atW7fKPb4QrxbvZ15fL2d4CPtDZNPCTUuLPusLhoJ0recazZs3T85E+njfaVphm58U8eKcF9hCvMAW4gW2EC+whXiBLaw2xFhtOLPrKN290Sn3EkgoTBaLRe5EEj9Mj99D2VlZxsQIfTe6qMCSQ2VlZXIm2u663VRQUCD3EhfiHSXerzi+QCW5s+RMorBoX+YGAgOUkZEh9yJ5u/rIack0jfO5vz5HB/90EPFOhImId7VrtZxJFOMX75P7vs4mXpzzAluIF9hCvMAW4gW28ILt/3zB5vV7qa2rVe5NLPFyLdYLNl/QRw6H+v1sA3c8lGXJoLy8PDkT6QdHttOuPbtMjwsul0tuxRfiHUO8m196iibPKJQziSMUDimvOBNC/iDZLFay2+1yJtJHHR+Ra77L9Hj59NlUt7tW7sUX4h1jvF868YycSRyx4g0HtGPan9s2m03ORGruaqayOWXK4x31jWT9262EiRfnvMAW4gW2EC+whXiBLcQLbGG1YZxWGy4dOU3uG91yb2KJH6nZJZP65ZTal9lqxJ3+HsrNy1Ue77vZQ5YrffTFz5tfqLRq9SpatmyZ3BtfiHcc4y0956SSybPlzESK8SOVh8ziFlekpaenK4/7+7xkuRug4lnqT9ysv3mKNm7fiHjvV6LHu+2x78mZiRSfeJ899tMJjRfnvMAW4gW2EC+whXiBLcQbJ+LiGY4jHHOEKRTSHhdjPExYbYjTasN3frOZerri8LZ67acdjrEaIXIwvSJNxBcMk8Ouvla49W4rTZk6hbKzs+VMpPzphXTs6Ntyb+wQbxzjffTlJyhrpvlF3/Eg/nQ1jVcLV4/Xob7WV8SbPzWfshSfGeHp6KXzPzzyUOPFaQOwhXiBLcQLbCFeYAvxAltYbUjA1Ya2hivU2xqfT6cU67VmF+1oh7RgiGy26Bu5CN393eSc7NQv7BlJvOX++v736dkf/0zOqFVXV8ut0SHeBI23fe85mp2TWJdTilJE1mZxi8+LsNntyqW2kD9AnmvdVOmqlDPRSj5bTJs2bZJ7o0O8CRzvS4+/JGcmUowc9EMWLV59L4o/5NffMq+ON0j9LXdobvlcORPp9TO/pcKlBQ8UL855gS3EC2whXmAL8QJbiBfYSop4e8630ns1v1OOnnMt1He1Szk8rb0U8PopOBBQjnAwpK9tmg2IL/bxLlq0iF59sdZ0LKisopJZxcoxvaiIMtLTKd3hUA5rWhqlpYnPOFAPiC/28c6ZMyfmmDRpkv5/fFRDfACzWJMUi+5mAxIXznmBLcQLbCFeYAvxAlspEa/H56aLbReiRuMnjdQ34KZ+f79yBEIBCoXDyjF4PZP4rhraL7EucYGHIOnjFe9k3Xv5TeV4q/kIdXjaqbO/Uzk8ARGw33TIi6xMhvhFEI9SDRirpI/3jf1vmI7nX3ieKlwVVFpWqhw5OTnKJbbBMXJZbfiA8YdzXmAL8QJbiBfYQrzAFuIFthCv5uLOY8rR+a+r1N/eqx4ddynsD1LIpx7iHr/6Wm9Y/xY1YOxSPt7vrv82bflctXIsKK6gAucU5cjPziOb1Wo6xCWT+rKZ9u9QDRQ8dikd78KFC2nNmjWmo6ysTF/rVQ2n00lWLVKzMfj275Hrv8MHjA1OG4AtxAtsIV5gC/ECW4j3Prh97qjh8XmMO9yE1UO/LBLGFeIdRd2pWlq/vzpqbDq4kRo7G6m5q1k5brs/IW/Aq9/LVzVUwd8b2pdBPAEmevCBeGPY8asd9O6pd5Xj+MnjNH/+fKqoqFCOGdOnU2ZmJmVkZCiHWEqLNbCUNjrEC2whXmAL8QJbiBfYQrzAFuIdo6Y/nFGOW+81kbezj7zdbuUQ92gQl02qBgWNyymVK1nxHAkG8Y7BN6vX05L+2cpR6sunrJCDssLqkaZ/WZTDEk7kZbLEqZj93YAS1YEDB6i9vp2eXr5NzkT6xitP0sLadcq7AbU2NFHr3gba8+U9coYH3A0I4D4hXmAL8QJbiBfYQrzAFlYbxolYbTj0+0NyL9qHlxto2WtPKVcbOi/eJM8fr1PtiHsPX7vVLLdiKy2aI7cm3uB9PkYaj9UGxDtO2tra5Jbat7bU0CO71TfObv2gidpfO0971kYulf3zwjv0lzNvyb1oXp+XHpm7mIpyp1EgGKBgKKDPW9NsZLMODvHWfLs2ZyW7za7PDT8uto157XFp8rj+e8S8uEOSsZ1mMf9LW3U5J+JNImufeJwW7FKv87b8u5FaXvmPMt6Gpg/p+1/7kZyJ9PO9P6ENq2qosuRTckaLJhzSQzaG34g6GDT2Q37yB4aOBUPGvIjeH5CP1eeM7cHHjnxS3Itde1IYTwDjiTH8SZEWslCws5/KS8vlnPFYu/ZdjP0f7KNpy4uopqZG/2ffD8QbJxMV73hRPSn0sMUTQ/Gk8A/4yN3RQ0XTppH/3uO1x8ntk/89SZNKM2n58uVkt2th27Swh31XbSPeOOEe74O639OGDRs2UEAL3+/Xopbfzbax2gAJRZxfi0+dz87OptzcXCosLKQZM2ZQSUkJlZeXk8vloqqqKv3Op4gX2EK8ceS+2UO3zzRHjZ5LbeS7209+90DEEDf5Fn/9jpwfHKGAdr7Zr/3VqjgW7xH0GS/yHiac88bJ09vVV5sJtztuUe+VXqr96styxlDfWE/nrjeQw+6QM5GaOppo6dxlVDKlWN8XP9ihH6+4tZaxLabu3WhL2xk5Hw4Zb703jgwdEzPGtsm8+NKPScMeJz7jQmwVFhRE/f6w9uLvH1feIWe5U3/BNvjfrD/OZFtAvAno7NmztG/PPnpx7S45Yzhx4TgN+H1yL5p45Z6dkU2VM11y5kEZ67NinXZwHddYsh2aF19Dd7w39vUt/ZjBIt66HzVv/Kq/rf/eMf1XfXvv+2/S1KWF+gs2/ffIIZhuI97EYxZvMsP1vJBSEC+whXiBLcQLbOEFWwIafMHmsKXLmdSwZPViXFXGnYjX6/XKvdSyYsUKuTU6xAts4ZwX2EK8wBbiBbYQL7CFeIEtxAtsIV5gC/ECW4gX2EK8wBbiBbYQL7CFeIEtxAtsIV5gC/ECW4gX2EK8wBbiBbYQL7CFeIEtxAtsIV5gC/ECW4gX2EK8wBbiBbYQL7CFeIEtxAtsIV5gC/ECW4gX2EK8wBbiBbYQL7CFeIEtxAtsIV5giuh/lRnsP8DVHzAAAAAASUVORK5CYII=;" vertex="1" parent="1">
          <mxGeometry x="201.72" y="105.4" width="114.83" height="133.2" as="geometry" />
        </mxCell>
        <mxCell id="lw9uACYRkFeqBbF8YDV_-5" value="" style="shape=image;verticalLabelPosition=bottom;labelBackgroundColor=default;verticalAlign=top;aspect=fixed;imageAspect=0;image=data:image/jpeg,/9j/4AAQSkZJRgABAQEAYABgAAD/2wBDAAMCAgICAgMCAgIDAwMDBAYEBAQEBAgGBgUGCQgKCgkICQkKDA8MCgsOCwkJDRENDg8QEBEQCgwSExIQEw8QEBD/2wBDAQMDAwQDBAgEBAgQCwkLEBAQEBAQEBAQEBAQEBAQEBAQEBAQEBAQEBAQEBAQEBAQEBAQEBAQEBAQEBAQEBAQEBD/wAARCAEPBKADASIAAhEBAxEB/8QAHwAAAQUBAQEBAQEAAAAAAAAAAAECAwQFBgcICQoL/8QAtRAAAgEDAwIEAwUFBAQAAAF9AQIDAAQRBRIhMUEGE1FhByJxFDKBkaEII0KxwRVS0fAkM2JyggkKFhcYGRolJicoKSo0NTY3ODk6Q0RFRkdISUpTVFVWV1hZWmNkZWZnaGlqc3R1dnd4eXqDhIWGh4iJipKTlJWWl5iZmqKjpKWmp6ipqrKztLW2t7i5usLDxMXGx8jJytLT1NXW19jZ2uHi4+Tl5ufo6erx8vP09fb3+Pn6/8QAHwEAAwEBAQEBAQEBAQAAAAAAAAECAwQFBgcICQoL/8QAtREAAgECBAQDBAcFBAQAAQJ3AAECAxEEBSExBhJBUQdhcRMiMoEIFEKRobHBCSMzUvAVYnLRChYkNOEl8RcYGRomJygpKjU2Nzg5OkNERUZHSElKU1RVVldYWVpjZGVmZ2hpanN0dXZ3eHl6goOEhYaHiImKkpOUlZaXmJmaoqOkpaanqKmqsrO0tba3uLm6wsPExcbHyMnK0tPU1dbX2Nna4uPk5ebn6Onq8vP09fb3+Pn6/9oADAMBAAIRAxEAPwD9U6KKKACiiigAooooAKKKKACiiigAooooAKKKKACiiigAooooAKKKKACiiigAooooAKKKKACiiigAooooAKKKKACiiigAooooAKKKKACiiigAooooAKKKKACiiigAooooAKKKKACiiigAooooAKKKKACiiigAooooAKKKKACiiigAooooAKKKKACiiigAooooAKKKKACiiigAooooAKKKKACiiigAooooAKKKKACiiigAooooAKKKKACiiigAooooAKKKKACiiigAooooAKKKKACiiigAooooAKKKKACiiigAooooAKKKKACiiigAooooAKKKKACiiigAooooAKKKKACiiigAooooAKKKKACiiigAooooAKKKKACiiigAooooAKKKKACiiigAooooAKKKKACiiigAooooAKKKKACiiigAooooAKKKKACiiigAooooAKKKKACiiigAooooAKKKKACiiigAooooAKKKKAPGP2pvi14y+EHg/wAP6v4IXSvt2r+IE0uRtStZLiNITZ3c5IRJIzu3W6DO7GCeK+dv+GxP2gv+fnwP/wCCG5/+TK9Y/by/5EDwR/2OUf8A6a9Rr43az1LWvFOh+G9P1htNGpNc+ZMsCSkeXEXHDf7uPxr7rhvKsvxeAniMXT5mpW3a0tHs0t2ceIrSpy0dlY9w/wCGxP2gv+fnwP8A+CG5/wDkyj/hsT9oL/n58D/+CG5/+TK8+/4Urr//AEUu5/8ABVB/jR/wpXX/APopdz/4KoP8a9n+x8l/6B3/AOBP/wCTOP8AtD+9+H/APQf+GxP2gv8An58D/wDghuf/AJMo/wCGxP2gv+fnwP8A+CG5/wDkyvPv+FK6/wD9FLuf/BVB/jR/wpXX/wDopdz/AOCqD/Gj+x8l/wCgd/8AgT/+TD+0P734f8A9B/4bE/aC/wCfnwP/AOCG5/8Akyj/AIbE/aC/5+fA/wD4Ibn/AOTK8+/4Urr/AP0Uu5/8FUH+NH/Cldf/AOil3P8A4KoP8aP7HyX/AKB3/wCBP/5MP7Q/vfh/wD0H/hsT9oL/AJ+fA/8A4Ibn/wCTKP8AhsT9oL/n58D/APghuf8A5Mrz7/hSuv8A/RS7n/wVQf40f8KV1/8A6KXc/wDgqg/xo/sfJf8AoHf/AIE//kw/tD+9+H/APQf+GxP2gv8An58D/wDghuf/AJMo/wCGxP2gv+fnwP8A+CG5/wDkyvPv+FK6/wD9FLuf/BVB/jR/wpXX/wDopdz/AOCqD/Gj+x8l/wCgd/8AgT/+TD+0P734f8A9B/4bE/aC/wCfnwP/AOCG5/8Akyj/AIbE/aC/5+fA/wD4Ibn/AOTK8+/4Urr/AP0Uu5/8FUH+NH/Cldf/AOil3P8A4KoP8aP7HyX/AKB3/wCBP/5MP7Q/vfh/wD0H/hsT9oL/AJ+fA/8A4Ibn/wCTKdD+2P8AHqO8s1upPBckMt3bwSLHolwjFXlVDhjdkA4bjIP0rzz/AIUrr/8A0Uu5/wDBVB/jSH4Ka8ZIW/4WXc5jnilX/iVQfeWRWHf1ArHEZPlPsZ+yw7UrO3vPe2n2xxzBX1l+H/AP0yor5cvfiN8adAutGvLv4jW1/bXGvaRp9xbHQ4I/MhutQgt5AHU5U7ZWII7gV9R1+dYjDVMLLkqqz3PSpVoV480NgooornNQooooAKKKKACiiigAooooAKKKKACiiigAooooAKKKKACiiigAooooAKKKKACvlH9oD9pL4sfDv4rX3gvwc3hpNOtLC0ug2oaZNcSs8ofd8yXEYAGwYGO55r6ur4D/AGsP+Tg9a/7BGmfylr2+HcJRx2YQoYiN4u+mq2TfQyrScINouf8ADYn7QX/Pz4H/APBDc/8AyZR/w2J+0F/z8+B//BDc/wDyZXjXhLwlrnjnUfEHk+LpNLh0q9itYoksYpchraKQkluc7nb9K6T/AIUrr/8A0Uu5/wDBVB/jX3MsmyWMnH6u9G18T6afznmyx3I+WUvw/wCAeg/8NiftBf8APz4H/wDBDc//ACZR/wANiftBf8/Pgf8A8ENz/wDJleff8KV1/wD6KXc/+CqD/Gj/AIUrr/8A0Uu5/wDBVB/jS/sfJf8AoHf/AIE//kxf2h/e/D/gHoP/AA2J+0F/z8+B/wDwQ3P/AMmUf8NiftBf8/Pgf/wQ3P8A8mV59/wpXX/+il3P/gqg/wAaP+FK6/8A9FLuf/BVB/jR/Y+S/wDQO/8AwJ//ACYf2h/e/D/gHoP/AA2J+0F/z8+B/wDwQ3P/AMmUf8NiftBf8/Pgf/wQ3P8A8mV59/wpXX/+il3P/gqg/wAaP+FK6/8A9FLuf/BVB/jR/Y+S/wDQO/8AwJ//ACYf2h/e/D/gHoP/AA2J+0F/z8+B/wDwQ3P/AMmUf8NiftBf8/Pgf/wQ3P8A8mV59/wpXX/+il3P/gqg/wAaP+FK6/8A9FLuf/BVB/jR/Y+S/wDQO/8AwJ//ACYf2h/e/D/gHoP/AA2J+0F/z8+B/wDwQ3P/AMmUf8NiftBf8/Pgf/wQ3P8A8mV59/wpXX/+il3P/gqg/wAaP+FK6/8A9FLuf/BVB/jR/Y+S/wDQO/8AwJ//ACYf2h/e/D/gHoP/AA2J+0F/z8+B/wDwQ3P/AMmUf8NiftBf8/Pgf/wQ3P8A8mV59/wpXX/+il3P/gqg/wAaP+FK6/8A9FLuf/BVB/jR/Y+S/wDQO/8AwJ//ACYf2h/e/D/gH0X+zl+0Z8VPiZ8VP+EK8at4cewbQ7zUlbTdNmtpRLDNbRgEvPICpE7HAAOVHNfU1fn38J/APjfwN46XxN4f+J8iXy6Xc2W6XR4HXypJYGbgnrmJOfrX0d8IvHHxH1D4oyeEfF3i2LWbJtAn1JAumxWxSVbiGMcpyeHbv39q+KzvLlh8ROph4ctJWsr36LzfU7MPjKdW0b3Z7tRRRXgnYFFFFABRRRQAUUUUAFFFFAHy1+0h+0Z8U/hn8VV8E+Cf+EcSwXQLLVHfUtNmuZWlmuLuMgFJ4wFC26cYJyTzXmn/AA2J+0F/z8+B/wDwQ3P/AMmUv7ZH/Jwrf9idpP8A6W6lXi3hfwvrXjfXtdtLfxZLpUOlG2CIlnFNu8xCTy3IwV9+tfouT5PllXLKWJxNLmlK60b7y/vJbI4MRiJUpPWyR7R/w2J+0F/z8+B//BDc/wDyZR/w2J+0F/z8+B//AAQ3P/yZXn3/AApXX/8Aopdz/wCCqD/Gj/hSuv8A/RS7n/wVQf413f2Pkv8A0Dv/AMCf/wAmc39of3vw/wCAeg/8NiftBf8APz4H/wDBDc//ACZR/wANiftBf8/Pgf8A8ENz/wDJleff8KV1/wD6KXc/+CqD/Gj/AIUrr/8A0Uu5/wDBVB/jR/Y+S/8AQO//AAJ//Jh/aH978P8AgHoP/DYn7QX/AD8+B/8AwQ3P/wAmUf8ADYn7QX/Pz4H/APBDc/8AyZXn3/Cldf8A+il3P/gqg/xo/wCFK6//ANFLuf8AwVQf40f2Pkv/AEDv/wACf/yYf2h/e/D/AIB6D/w2J+0F/wA/Pgf/AMENz/8AJlH/AA2J+0F/z8+B/wDwQ3P/AMmV59/wpXX/APopdz/4KoP8aP8AhSuv/wDRS7n/AMFUH+NH9j5L/wBA7/8AAn/8mH9of3vw/wCAeg/8NiftBf8APz4H/wDBDc//ACZR/wANiftBf8/Pgf8A8ENz/wDJleff8KV1/wD6KXc/+CqD/Gj/AIUrr/8A0Uu5/wDBVB/jR/Y+S/8AQO//AAJ//Jh/aH978P8AgHoP/DYn7QX/AD8+B/8AwQ3P/wAmUf8ADYn7QX/Pz4H/APBDc/8AyZXn3/Cldf8A+il3P/gqg/xo/wCFK6//ANFLuf8AwVQf40f2Pkv/AEDv/wACf/yYf2h/e/D/AIB6D/w2J+0F/wA/Pgf/AMENz/8AJlegfAL9pT4tfEL4sad4K8YN4Zk069sru4ZtP0ya3lV4lUr8z3EgIO7kY7da+fv+FK6//wBFLuf/AAVQf4103wx+HfjTwb48sfE+h/E6VL62triGNpNHgddsgUNwT7CuHMsny36rP6pQaqdG2+6/vPp5FQzCPN70tPT/AIB+hdFeB/Cvx18TLj4t2Xg/xb4vt9a06/8ADup6kFXS4rZ45ra5sI0IZDyCt1JkH0Fe+V+f1qM8PUdOpuj06dSNWPPHYKKKKyLCiiigAooooAKKKKACiiigAooooAKKKKACiiigAooooAKKKKACiiigAooooAKKKKACiiigAooooAKKKKACiiigAooooAKKKKACiiigAooooAKKKKACiiigAooooAKKKKACiiigAooooAKKKKACiiigAooooA+Z/wBvL/kQPBH/AGOUf/pr1GvkXw7/AMlQ8I/719/6SvX11+3l/wAiB4I/7HKP/wBNeo18i+Hf+SoeEf8Aevv/AElev0fhb/kT1P8Ar5/8gebjuvp/mdD8bPFHizQ9W8Oab4Z8RT6Sl/FfSXDQ29vKzmPyNg/fRuAB5jdAOtcF/wAJl8T/APop2q/+C/Tv/kaur+Pn/IzeEP8Ar21P+drXE+F/C8Xjbx7F4dvdY1OxtV0e4vT9hlVGaRJoEXJZWGMSN29K+ow1PDxw869aLlaVt35eaXU8umoqmm1+Bb/4TL4n/wDRTtV/8F+nf/I1H/CZfE//AKKdqv8A4L9O/wDkau4/4Z68O/8AQ5eLf/AyH/4zR/wz14d/6HLxb/4GQ/8Axmj2uC/58y+//wC2J9rS/pHD/wDCZfE//op2q/8Agv07/wCRqP8AhMvif/0U7Vf/AAX6d/8AI1dx/wAM9eHf+hy8W/8AgZD/APGaP+GevDv/AEOXi3/wMh/+M0e1wX/PmX3/AP2we1pf0jh/+Ey+J/8A0U7Vf/Bfp3/yNR/wmXxP/wCinar/AOC/Tv8A5GruP+GevDv/AEOXi3/wMh/+M0f8M9eHf+hy8W/+BkP/AMZo9rgv+fMvv/8Atg9rS/pHD/8ACZfE/wD6Kdqv/gv07/5Go/4TL4n/APRTtV/8F+nf/I1dx/wz14d/6HLxb/4GQ/8Axmj/AIZ68O/9Dl4t/wDAyH/4zR7XBf8APmX3/wD2we1pf0jh/wDhMvif/wBFO1X/AMF+nf8AyNR/wmXxP/6Kdqv/AIL9O/8Akau4/wCGevDv/Q5eLf8AwMh/+M0f8M9eHf8AocvFv/gZD/8AGaPa4L/nzL7/AP7YPa0v6Rw//CZfE/8A6Kdqv/gv07/5Go/4TL4n8f8AFztV4YH/AJB+nev/AF7V3H/DPXh3/ocvFv8A4GQ//GaP+GevDv8A0OXi3/wMh/8AjNDq4F/8uZff/wDbB7Wl/SOW1b4hfFm+jtFuvilqriDUrC8j/wCJdpo2yw3UUsbcW3OHRTjocYORxXs3w+/aC+PV58SPB+k6x8Vr7UdP1PXrKxu7WXSdNRZYZJQrrujtldcg9VYGuFk/Z98Ptt3eMvFhw6MP9Mh6hgR/yx9RWxovwT0+w8QaPqdp468XR3NjqEFzbyC8gykiMCrD9z2NeNmmEwOIoz9nQ9/laTb2fTqdVDGQpaX09D9G6K+XNF1bx1o/xA8E28/xO8T6paaprgsrq1vpoTFJH9muJP4IlP3ol74xkV9R1+YYnDTws/Z1Nz2aNaNePNHYKKKKwNQooooAKKKKACiiigAooooAKKKKACiiigAooooAKKKKACiiigAooooAK+A/2sP+Tg9a/wCwRpn8pa+/K+A/2sP+Tg9a/wCwRpn8pa+k4S/5G1P/ALe/9JZjiP4bOP8Agj/x+eM/+wtB/wCkNvXH+LPG3xCHjfxHp+m+Or7TrLT75be3t4bKzdUX7PC5+aSFmJ3O3U12HwR/4/PGf/YWg/8ASG3rznxP/wAlB8Yf9hZP/SS3r9FwlKFfF8lTbml+b7HgNJ1pX/rYk/4TL4n/APRTtV/8F+nf/I1H/CZfE/8A6Kdqv/gv07/5Gq38Nfhbp/jzRb3W9U8T+ILaVNUu7ZY7S5jSNUR8LgNGx6e9db/wz14d/wChy8W/+BkP/wAZrd1cCm17KX3/AP2wpTpxdn+Rw/8AwmXxP/6Kdqv/AIL9O/8Akaj/AITL4n/9FO1X/wAF+nf/ACNXcf8ADPXh3/ocvFv/AIGQ/wDxmj/hnrw7/wBDl4t/8DIf/jNL2uC/58y+/wD+2J9rS/pHD/8ACZfE/wD6Kdqv/gv07/5Go/4TL4n/APRTtV/8F+nf/I1dx/wz14d/6HLxb/4GQ/8Axmj/AIZ68O/9Dl4t/wDAyH/4zR7XBf8APmX3/wD2we1pf0jh/wDhMvif/wBFO1X/AMF+nf8AyNR/wmXxP/6Kdqv/AIL9O/8Akau4/wCGevDv/Q5eLf8AwMh/+M0f8M9eHf8AocvFv/gZD/8AGaPa4L/nzL7/AP7YPa0v6Rw//CZfE/8A6Kdqv/gv07/5Go/4TL4n/wDRTtV/8F+nf/I1dx/wz14d/wChy8W/+BkP/wAZo/4Z68O/9Dl4t/8AAyH/AOM0e1wX/PmX3/8A2we1pf0jh/8AhMvif/0U7Vf/AAX6d/8AI1H/AAmXxP8A+inar/4L9O/+Rq7j/hnrw7/0OXi3/wADIf8A4zR/wz14d/6HLxb/AOBkP/xmj2uC/wCfMvv/APtg9rS/pHIaf46+Klpdedb/ABQ1VX8tlz/Z+nHgkett7Ctjw38U/jNpHjL/AISDT/ixqkV//Zkln5v9maY37lpUcrtNqR95VOcZ4rYT9nvw8rZHjLxbnH/P5D/8ZqWH4AaDHc+cnjPxaH8srn7ZD0yD/wA8a568MvrxalQbv3f/AATSniKcJcy/I+jf2Q/iv8T/AB94u8U6P4+8bXGv29hptndWomsbOAxPJLMr4NvDHnIRfvZ6cV9R18GfCn4bXXg3WNTv/DPxJ8Y2M95awwzOl1bkuis5UHMJ6Fm/OvoH9n3WvFVx438a+Hdf8Yatr1rp+n6NdWp1Fo2eF5nvlkwURRgiGPqP4a/Nc6y/2FedanFRp30XY9fDYuFa0Fue5UUUV4R2hRRRQAUUUUAFFFFAHwh+2R/ycK3/AGJ2k/8ApbqVed/Bf/kZvGX+9p//AKKevRP2yP8Ak4Vv+xO0n/0t1KvO/gv/AMjN4y/3tP8A/RT1+p5P/wAiXD+svzmePmG0vl+hzfjjxt8QIviD4j0nSfG17ptjp09vFb28FnZuFDWkMjfNLCzElnY8nvWR/wAJl8T/APop2q/+C/Tv/kal8a/8lQ8Y/wDX5af+kFtU3w1+Gtj4/tdb1TVPEmvWjWeryWcUdncRpGIxDC44aNjnMjd/Svep08NSwsKtWDk5Nrd935+Rxe7GKbS2XQg/4TL4n/8ARTtV/wDBfp3/AMjUf8Jl8T/+inar/wCC/Tv/AJGruP8Ahnrw7/0OXi3/AMDIf/jNH/DPXh3/AKHLxb/4GQ//ABmp9rgv+fMvv/8AtiPa0v6Rw/8AwmXxP/6Kdqv/AIL9O/8Akaj/AITL4n/9FO1X/wAF+nf/ACNXcf8ADPXh3/ocvFv/AIGQ/wDxmj/hnrw7/wBDl4t/8DIf/jNHtcF/z5l9/wD9sHtaX9I4f/hMvif/ANFO1X/wX6d/8jUf8Jl8T/8Aop2q/wDgv07/AORq7j/hnrw7/wBDl4t/8DIf/jNH/DPXh3/ocvFv/gZD/wDGaPa4L/nzL7//ALYPa0v6Rw//AAmXxP8A+inar/4L9O/+RqP+Ey+J/wD0U7Vf/Bfp3/yNXcf8M9eHf+hy8W/+BkP/AMZo/wCGevDv/Q5eLf8AwMh/+M0e1wX/AD5l9/8A9sHtaX9I4f8A4TL4n/8ARTtV/wDBfp3/AMjUf8Jl8T/+inar/wCC/Tv/AJGruP8Ahnrw7/0OXi3/AMDIf/jNH/DPXh3/AKHLxb/4GQ//ABmj2uC/58y+/wD+2D2tL+kcP/wmXxP/AOinar/4L9O/+RqnsfHPxUtbtZ4fihqquqkA/wBn6cev1tq7H/hnrw7/ANDl4t/8DIf/AIzSp+z34dVsjxl4tz/1+Q//ABmlKpgZK3sX9/8A9sP2tL+kYmh/FD4yaZ42svEVj8V9Vj1C30u9so5v7M0w4hlltnkXabXactBEc4yNvHU5+nv2Tfi/8VvHXxM1fw3488dXOvWEGhG+hjmsLKAxzC4jTcDbwxk/KxGCSOa8Bh+AGgx3SzL4y8WBxGyg/bIehK5/5Y+wrtvhd8L5fB/ie61fw58RvGFldzWH2Z5Uurckx+YrbeYSOoB/CvnM7wOExGHn9Xo8tR21fy830O3D42FO0W9D76orwb4E6x4rb4keJPDmueNNZ16ztdD0++gGpSRsYpJbi6R8eWiDBEKdQeh9a95r85rUpUKjpy3R69OaqRUo7MKKKKyLCiiigAooooAKKKKACiiigAooooAKKKKACiiigAooooAKKKKACiiigAooooAKKKKACiiigAooooAKKKKACiiigAooooAKKKKACiiigAooooAKKKKACiiigAooooAKKKKACiiigAooooAKKKKACiiigD5n/by/5EDwR/2OUf8A6a9Rr5F8O/8AJUPCP+9ff+kr19dft5f8iB4I/wCxyj/9Neo18i+Hf+SoeEf96+/9JXr9H4W/5E9T/r5/8gebjuvp/mX/AI+f8jN4Q/69tT/na1h/CT/kra/9i5ef+lNrW58fP+Rm8If9e2p/ztaw/hJ/yVtf+xcvP/Sm1r6iH/Ivn/jX/tp5S/g/J/qXfjLqGtL4+tNOsvEWsWFv/Y6zGOyv5YFZ/OcbiEYAnGBn2Fcd53iD/od/FX/g6uP/AIqur+Mn/JS7T/sBL/6UPWV8NvA/hzx14z8R2/iaC8uItO0zS3to4dRubZUaWW9DnEMigkiNOTn7oq6EcPTwqrVKak3JrX5/5BFqNO77GT53iD/od/FX/g6uP/iqPO8Qf9Dv4q/8HVx/8VXrv/Cgfhb/ANAfU/8Awfah/wDH6P8AhQPwt/6A+p/+D7UP/j9T9Ywv/QPH+vkT7eHn93/BPIvO8Qf9Dv4q/wDB1cf/ABVHneIP+h38Vf8Ag6uP/iq9d/4UD8Lf+gPqf/g+1D/4/R/woH4W/wDQH1P/AMH2of8Ax+j6xhf+geP9fIPbw8/u/wCCeRed4g/6HfxV/wCDq4/+Ko87xB/0O/ir/wAHVx/8VXrv/Cgfhb/0B9T/APB9qH/x+j/hQPwt/wCgPqf/AIPtQ/8Aj9H1jC/9A8f6+Qe3h5/d/wAE8i87xB/0O/ir/wAHVx/8VR53iD/od/FX/g6uP/iq9d/4UD8Lf+gPqf8A4PtQ/wDj9H/Cgfhb/wBAfU//AAfah/8AH6PrGF/6B4/18g9vDz+7/gnkXneIP+h38Vf+Dq4/+Ko87xB/0O/ir/wdXH/xVeu/8KB+Fv8A0B9T/wDB9qH/AMfo/wCFA/C3/oD6n/4PtQ/+P0fWML/0Dx/r5B7eHn93/BPI/P8AEHH/ABW/irr/ANBq4/8AiqljuvESzRuvjnxWGVwQRrVxwf8AvqvV/wDhQPwt/wCgPqf/AIPtQ/8Aj9KPgF8Lsj/iT6n/AOD/AFD/AOP0nXwr/wCYeP8AX/bo1Xh5/d/wTzX+1fFn9q6Td/8ACwvF/nWl6JreT+3LndFJ5ci7lO/g4Zhn0Jr3X9njx18Qrz4+eCdJ1X4jeK9TsL+4v47m0v8AWbi4hlC6dcuu5HYqcOisMjgqK5f/AIUH8L/Mjb+yNUyrZB/t/UODg/8ATetvwr8Ffh/p3ijTNR0+31u2u7d5TDPD4j1JJIyYXU7WE+RlWI47E14ubYfDYrDzjToRjJrR9v8AyU6qONhTa3t/XmfoPRXy78NtPk0H41eFLSx1zxDNb31nqf2iC+169vYnKRIUOyeV1BG48gZ5r6ir8xxOHlhajpT3R7NGrGvDnjsFFFFYGoUUUUAFFFFABRRRQAUUUUAFFFFABRRRQAUUUUAFFFFABRRRQAV8B/tYf8nB61/2CNM/lLX35XwH+1h/ycHrX/YI0z+UtfScJf8AI2p/9vf+ksxxH8NnH/BH/j88Z/8AYWg/9IbevOfE/wDyUHxh/wBhZP8A0kt69G+CP/H54z/7C0H/AKQ29ec+J/8AkoPjD/sLJ/6SW9fpWX/7985/mzwX/Gl6f5Hof7P/APyJl/8A9hy//wDRleW3OpeJL7WNcmk8ZeJI9muapAkcOrTxxpHHezRoqqrYACqoAHpXqX7P/wDyJl//ANhy/wD/AEZXlEf/ACEte/7GLWf/AE4XFGAo06+LcaiurS3/AMUTNfxJD/O8Qf8AQ7+Kv/B1cf8AxVHneIP+h38Vf+Dq4/8Aiq7H4U/CHwH4p8A6Vr+u2Go3F9d+c00i61exhiJnUYVJgo4AHAHSus/4UD8Lf+gPqf8A4PtQ/wDj9NYnCvVYeP8AXyCVaEXyu+nl/wAE8i87xB/0O/ir/wAHVx/8VR53iD/od/FX/g6uP/iq9d/4UD8Lf+gPqf8A4PtQ/wDj9H/Cgfhb/wBAfU//AAfah/8AH6f1jC/9A8f6+Qvbw8/u/wCCeRed4g/6HfxV/wCDq4/+Ko87xB/0O/ir/wAHVx/8VXrv/Cgfhb/0B9T/APB9qH/x+j/hQPwt/wCgPqf/AIPtQ/8Aj9H1jC/9A8f6+Qe3h5/d/wAE8i87xB/0O/ir/wAHVx/8VR53iD/od/FX/g6uP/iq9d/4UD8Lf+gPqf8A4PtQ/wDj9H/Cgfhb/wBAfU//AAfah/8AH6PrGF/6B4/18g9vDz+7/gnkXneIP+h38Vf+Dq4/+Ko87xB/0O/ir/wdXH/xVeu/8KB+Fv8A0B9T/wDB9qH/AMfo/wCFA/C3/oD6n/4PtQ/+P0fWML/0Dx/r5B7eHn93/BPI/O8Qf9Dv4q/8HVx/8VSrP4g3Z/4TfxVn/sNXH/xVet/8KB+Fv/QH1P8A8H2of/H6P+FA/C3/AKA+p/8Ag+1D/wCP0fWML/0Dx/r5B7eHn93/AATy+xvvE9vI7Q+PfFkZZQCV1y5Gf/H61fC/iDxtpWt6rfab8SPGVtcXdvaxzyxa9cq0ixtMUDEPyF3vj03H1rvV+AfwvHTR9TH/AHH9Q/8Aj9SQ/AX4YxyOyaTqqllXJHiDUOcZx/y3rnrPB1VaWGj+H/yJrTxUYO6v/XzPob9iXxN4q8Rab41j8TeKtZ1s2WoWsdu+p38t08StBuIUyEkAk54r6ar4X+HPwp8I6DHqS6JN4k08XE0bS/ZfFGpxeYQmAW23AyQOOa99/ZhN1Da+P9Lm1TU72DTvFSQWv9oahPeSRRtpOnylBJM7Pt8yWRsZwC5xX5lnOAlh606ySUXJ2S6fgj18Li41/cV72Pa6KKK8Q7QooooAKKKKAPhD9sj/AJOFb/sTtJ/9LdSrzv4L/wDIzeMv97T/AP0U9eiftkf8nCt/2J2k/wDpbqVed/Bf/kZvGX+9p/8A6Kev1PJ/+RLh/WX5zPHzDaXy/Q4Xxr/yVDxj/wBflp/6QW1dt+z3/wAgLxL/ANjFN/6TW1cT41/5Kh4x/wCvy0/9ILau2/Z7/wCQF4l/7GKb/wBJravdq/7jS/xP/wBuPPq/wvkjzrVtS8RXnibxD/xWHiKBINYvIY44NWnjREWUhVVQ2AAOMCoPO8Qf9Dv4q/8AB1cf/FU66/5GTxN/2Hr7/wBGmur+Evwn8D+L/BMPiDxBY6jc39xqGppJIusXsQKx308aAJHKqqAiKMADpWiWGoYelKVJScl/l5MtyUI8zOS87xB/0O/ir/wdXH/xVHneIP8Aod/FX/g6uP8A4qvXf+FA/C3/AKA+p/8Ag+1D/wCP0f8ACgfhb/0B9T/8H2of/H6z+sYX/oHj/XyM/bw8/u/4J5F53iD/AKHfxV/4Orj/AOKo87xB/wBDv4q/8HVx/wDFV67/AMKB+Fv/AEB9T/8AB9qH/wAfo/4UD8Lf+gPqf/g+1D/4/R9Ywv8A0Dx/r5B7eHn93/BPIvO8Qf8AQ7+Kv/B1cf8AxVHneIP+h38Vf+Dq4/8Aiq9d/wCFA/C3/oD6n/4PtQ/+P0f8KB+Fv/QH1P8A8H2of/H6PrGF/wCgeP8AXyD28PP7v+CeRed4g/6HfxV/4Orj/wCKo87xB/0O/ir/AMHVx/8AFV67/wAKB+Fv/QH1P/wfah/8fo/4UD8Lf+gPqf8A4PtQ/wDj9H1jC/8AQPH+vkHt4ef3f8E8i87xB/0O/ir/AMHVx/8AFUvneIP+h38Vf+Dq4/8Aiq9c/wCFA/C3/oD6n/4PtQ/+P0f8KB+Fv/QH1P8A8H2of/H6PrGF/wCgeP8AXyD28PP7v+CeSLP4g3Z/4TfxV0/6DVx/8VVmxvvE0EzSQ+PPFiMVxldbuAcZ/wB+vUv+FA/C3/oD6n/4PtQ/+P05fgH8LweNH1P/AMH+of8Ax+plWwslb6vH+v8At0arw8/u/wCCcD4b17xppviC+1HT/iR4yt7qezghkmj165V3jV5Sqkh8kAuxA/2jX1x+xF4q8XeINW8fWfibxdrmuR2MWkNbf2pqEt0YTJ9r37PMY7d2xM467R6V4TD8BfhikzOuk6qrFQCR4g1Dkc/9N67P4cfCXwfoNzqsmhyeItPa5W3EzWvifU4jJt8zbu23Azjc2M9Mn1r5zPcHRxeHccPRjCV1r/SO2hj4U9He39eZ920V4b+zStxa6p480ltU1S8trLULJbcahqNxePEGtVdgrzu7AFiTjOOa9yr84q03RqOnLdaHsQmqkVJdQooorMsKKKKACiiigAooooAKKKKACiiigAooooAKKKKACiiigAooooAKKKKACiiigAr5M/b0Mhb4fwrNNGstxqSv5cjISBHCcZUg9QPyr6zr5M/by/13w7/6+dT/APRUVepkkYzzGjGSunJGdV2gz5X+xr/z9X3/AIHTf/FUfY1/5+r7/wADpv8A4ql0Hwz4c8VfFTSdO8UaBp2r2kfh/VZkgvrVJ41kFxp4DhXBAYBmGeuCfWvQ7v4YfAvT5BDffD/wNbSFdwWbS7RCR0zgr04P5V+pV/qtKpKmsPCy9F0T/l8zx6mK9nLldzzv7Gv/AD9X3/gdN/8AFUfY1/5+r7/wOm/+Krvf+Fe/s+/9CX8P/wDwX2f/AMTR/wAK9/Z9/wChL+H/AP4L7P8A+JrL2mG/6B4fh/8AIkfXfU4L7Gv/AD9X3/gdN/8AFUfY1/5+r7/wOm/+Krvf+Fe/s+/9CX8P/wDwX2f/AMTR/wAK9/Z9/wChL+H/AP4L7P8A+Jo9phv+geH4f/Ih9d9Tgvsa/wDP1ff+B03/AMVX3V+xjJNL8AtKM00srLqmrxhpHLttW/nVRkkk4AA+gr5S/wCFe/s+/wDQl/D/AP8ABfZ//E11nhbwD+z0ujxq3g74fA+ZL1sLL++3+zXg57haeOpwjShGnZ9Ov3JGtLHqL1TZ95UV4j+zD4m8FaX8E9D06PxBolnHb3WqRxwLdwxiNBqNztULkYG3GAO2K9os7yz1C3S80+6hubeTOyWGQOjYODhhweQR+Ffnslyto9lO6uTUUUUhhRRRQBn+IP8AkA6l/wBec3/oBr8p9Dhe60XT7m4vr95ZbWKR2N7NyxQEn73rX6seIP8AkA6l/wBec3/oBr8lrj/kmsv/AGAz/wCk9facG0qVWpWdWClaKeqT/M5cS2rWN77Gv/P1ff8AgdN/8VR9jX/n6vv/AAOm/wDiq73Q/hH8IP8AhHNPvb34aeEf+PKKSWWXR7b/AJ5glmJT8STR/wAK9/Z9/wChL+H/AP4L7P8A+Jr632mH/wCgeH4f/InlfXfU4L7Gv/P1ff8AgdN/8VR9jX/n6vv/AAOm/wDiq73/AIV7+z7/ANCX8P8A/wAF9n/8TR/wr39n3/oS/h//AOC+z/8AiaPaYb/oHh+H/wAiH131OC+xr/z9X3/gdN/8VR9jX/n6vv8AwOm/+Krvf+Fe/s+/9CX8P/8AwX2f/wATR/wr39n3/oS/h/8A+C+z/wDiaPaYb/oHh+H/AMiH131Nr9lFXg/aE8OwrcXLpJY6izLJcSSDIhABwxOD8x/Ov0Er88fDvw//AGfF1qBm8F/D8AJJydPsvT/dr1D4OWvwn8G/HzRrjwvD4T0SO58K60lxJYi2txIRdaaUDlMZxl8Z/wBrHevh+IcGpVp4qCUY6e6vkuy/I7cLjFUap2Z9fUVnaf4i8P6tM1tpOuafezKvmNHb3SSMFyBkhSTjJHPuK0a+WPSCiiigAooooA+Z/wBvL/kQPBH/AGOUf/pr1GvkXw7/AMlQ8I/719/6SvX11+3l/wAiB4I/7HKP/wBNeo18i+Hf+SoeEf8Aevv/AElev0fhb/kT1P8Ar5/8gebjuvp/mX/j5/yM3hD/AK9tT/na1h/CT/kra/8AYuXn/pTa1ufHz/kZvCH/AF7an/O1rD+En/JW1/7Fy8/9KbWvqIf8i+f+Nf8Atp5S/g/J/qT/ABk/5KXaf9gJf/Sh6s/Af/kePGH/AGCtG/8AR2oVW+Mn/JS7T/sBL/6UPVn4D/8AI8eMP+wVo3/o7UKf/MBH/G/1Jf8AB+X6o5/4pWNvqHxQ1lboSMsVrZFQsrKASjZ+6R6D8q5z/hH9K/54y/8AgRJ/8VXV/Eb/AJKlrv8A162P/oD1b+DvgHwL4sn8W33inwZoesXMOrRRRzX+nwzuifYrc7QzqSBkk49zV03Rw+DhVlSjJuTWtu8utn2LUuWF/JHE/wDCP6V/zxl/8CJP/iqP+Ef0r/njL/4ESf8AxVe3zfDX4B28rQ3HgTwFFIh2sj6bZhlPoQV4pn/Cu/2ff+hJ+H//AIL7P/4msvr1D/oHh96/+RJ9uvM8T/4R/Sv+eMv/AIESf/FUf8I/pX/PGX/wIk/+Kr2z/hXf7Pv/AEJPw/8A/BfZ/wDxNH/Cu/2ff+hJ+H//AIL7P/4mj69Q/wCgeH3r/wCRD2/qeJ/8I/pX/PGX/wACJP8A4qj/AIR/Sv8AnjL/AOBEn/xVe2f8K7/Z9/6En4f/APgvs/8A4mj/AIV3+z7/ANCT8P8A/wAF9n/8TR9eof8AQPD71/8AIh7f1PE/+Ef0r/njL/4ESf8AxVH/AAj+lf8APGX/AMCJP/iq9s/4V3+z7/0JPw//APBfZ/8AxNH/AArv9n3/AKEn4f8A/gvs/wD4mj69Q/6B4fev/kQ9v6nif/CP6V/zxl/8CJP/AIqj/hH9K/54y/8AgRJ/8VXtn/Cu/wBn3/oSfh//AOC+z/8AiaP+Fd/s+/8AQk/D/wD8F9n/APE0fXqH/QPD71/8iHt/U8UHh/S8/wCpl/8AAiT/AOKqWDQNLWdGWOYEZ5FzJ6H/AGq9m/4V3+z7/wBCT8P/APwX2f8A8TQvw8/Z9z/yJPw//wDBfZ//ABNJ43Dv/mHh96/+RGq/qeTWei2Ca5ZTJ9oWREmCuLqXK5Azg7uM19IfsYma3+PzWqXl20MvhHU5HjkuZJFLLeaeFbDEjIDMM/7Rril+Hv7PvmL/AMUV8P8Av/zD7P8A+Jra8L/D/wDZ8XWtzeDPh8B9lkGTp9l/ej/2a8TOY0cbhZ06dKEG7aq11Zr+6vTc6aON9m1o2foVRXyX8B1+Ffg3433X/CNDwrolvceFZfO+w/Z7ZJHF5DjdswCcZxn3r6l07X9C1iR4tJ1qwvXjG51t7lJCo9SFJxX5piaLw9V0m72Pao1PbQU11L9FFFYGgV86/tzvIvwl0cRzSR7/ABNZoxjcocGGcEZBzX0VXzp+3R/ySbRP+xpsv/RU9duWxUsZRjLVOUfzRM/hZ8X/AGNf+fq+/wDA6b/4qj7Gv/P1ff8AgdN/8VVeXRdH8Q+NvBOj69pVpqVhcaxceba3cKzRSbdNvGXcjAg4YAjI6gGvTrz4V/A/T9n9ofDvwRbeZnZ52lWibsYzjK84yPzr9axEcLRqOCw8Hb0X/trPFqYn2T5Xc85+xr/z9X3/AIHTf/FUfY1/5+r7/wADpv8A4qu9/wCFe/s+/wDQl/D/AP8ABfZ//E0f8K9/Z9/6Ev4f/wDgvs//AImsfaYb/oHh+H/yJH131OC+xr/z9X3/AIHTf/FUfY1/5+r7/wADpv8A4qu9/wCFe/s+/wDQl/D/AP8ABfZ//E0f8K9/Z9/6Ev4f/wDgvs//AImj2mG/6B4fh/8AIh9d9Tgvsa/8/V9/4HTf/FV9g/sHyTHwN4zhkuJ5Ug8UbI/NlaQop0+zbALEnGWY49zXz3/wr39n3/oS/h//AOC+z/8Aia6Twh4A/Z7S1u93g34fLm472Fl/cT/Zrxs8w9LG4dU6VOEHzJ3Xo9NkaUseoyu02ffVFfPX7Kus+APDfhfxdpOm6t4f0uzh8WXX2e2hnhhjRDa2v3EBAAznoOua980/UtN1aD7VpeoW15CGK+ZbyrIuR1GVJGeRX51Uh7Obh2dj2YS54qXcs0UUVBQUUUUAFfAf7WH/ACcHrX/YI0z+UtfflfAf7WH/ACcHrX/YI0z+UtfScJf8jan/ANvf+ksxxH8NnH/BH/j88Z/9haD/ANIbevOfE/8AyUHxh/2Fk/8ASS3r0b4I/wDH54z/AOwtB/6Q29ec+J/+Sg+MP+wsn/pJb1+lZf8A7985/mzwX/Gl6f5Hof7P/wDyJl//ANhy/wD/AEZXlEf/ACEte/7GLWf/AE4XFer/ALP/APyJl/8A9hy//wDRleUR/wDIS17/ALGLWf8A04XFaZX/AL6/8Mv/AEqJmv4kj2b4E/8AJKdB/wB24/8ASiSvnvwzpFje+H9Ou7pZpJpbaN3Y3EmWJUZP3q+hPgT/AMkp0H/duP8A0okrwDw//wAiTZf9g9f/AECs8rpU6tT95FO0Xur9h0/jn6/5l3/hH9K/54y/+BEn/wAVR/wj+lf88Zf/AAIk/wDiq9Z+Hvwn+Etx8OfDWqap8N/CcksuiWdxcXE+kW5ZmMCMzuzJySckk+9af/Cu/wBn3/oSfh//AOC+z/8AiaSx9BpP6vDXzX/yIOsk7a/18zxP/hH9K/54y/8AgRJ/8VR/wj+lf88Zf/AiT/4qvbP+Fd/s+/8AQk/D/wD8F9n/APE0f8K7/Z9/6En4f/8Agvs//iaf16h/0Dw+9f8AyIvb+p4n/wAI/pX/ADxl/wDAiT/4qj/hH9K/54y/+BEn/wAVXtn/AArv9n3/AKEn4f8A/gvs/wD4mj/hXf7Pv/Qk/D//AMF9n/8AE0fXqH/QPD71/wDIh7f1PE/+Ef0r/njL/wCBEn/xVH/CP6V/zxl/8CJP/iq9s/4V3+z7/wBCT8P/APwX2f8A8TR/wrv9n3/oSfh//wCC+z/+Jo+vUP8AoHh96/8AkQ9v6nif/CP6V/zxl/8AAiT/AOKo/wCEf0r/AJ4y/wDgRJ/8VXtn/Cu/2ff+hJ+H/wD4L7P/AOJo/wCFd/s+/wDQk/D/AP8ABfZ//E0fXqH/AEDw+9f/ACIe39TxT/hH9L/54zf+BEn/AMVSr4f0r/njL/4ESf8AxVe1f8K7/Z9/6En4f/8Agvs//iaP+Fd/s+/9CT8P/wDwX2f/AMTR9eof9A8PvX/yIe3XmePWehaagfak65Pa5l/+KrT8N6TaWzal9ne6i8y7Dvsu5RubyYhk4bk4AH0Ar09fh5+z7/0JPw//APBfZ/8AxNPh+Hv7Pvz/APFF/D/73/QPs/Qf7NYVcTh6i1w8Pw/+RNYYnld9T6Y/YYeRvhLrAkmkk2eJrxFMjlzgQwADJOa+iq+CPCPgH9ntNNlDeDfh8p+0P1sLL0H+zXv/AOy34g8C6F8L59Js9b0HT7a28Ra2kFtHcwxJHH9vm2hUBAC4xjAxivzDN8F7CrKtdWlJ6LoevhcUq/u22PeKKgs76z1K2S80+8hureTOyWGQOjYJBww4OCCPwqevHOwKKKKAPhD9sj/k4Vv+xO0n/wBLdSrzv4L/APIzeMv97T//AEU9eiftkf8AJwrf9idpP/pbqVed/Bf/AJGbxl/vaf8A+inr9Tyf/kS4f1l+czx8w2l8v0OF8a/8lQ8Y/wDX5af+kFtXbfs9/wDIC8S/9jFN/wCk1tXE+Nf+SoeMf+vy0/8ASC2rtv2e/wDkBeJf+xim/wDSa2r3av8AuNL/ABP/ANuPPq/wvkjzW6/5GTxN/wBh6+/9GmvWvgB/yS+y/wCwlrH/AKcrmvJbr/kZPE3/AGHr7/0aa9a+AH/JL7L/ALCWsf8ApyuaMR/u2H/wv9BVv4fzX5M8K03SbG8t3uLlJWkaecE+fIOkrAcA46AVa/4R/Sv+eMv/AIESf/FU7Q/+PA/9fFx/6OevTvhT8KvhTf8Aws8K6trHw58K3FxPolpPc3NxpNuzuxhUs7uyZJPJJJrSU6GFoUf3MZOUb62WyXk+5rOfJq2eX/8ACP6V/wA8Zf8AwIk/+Ko/4R/Sv+eMv/gRJ/8AFV7Z/wAK7/Z9/wChJ+H/AP4L7P8A+Jo/4V3+z7/0JPw//wDBfZ//ABNY/XqH/QPD71/8iZ+39TxP/hH9K/54y/8AgRJ/8VR/wj+lf88Zf/AiT/4qvbP+Fd/s+/8AQk/D/wD8F9n/APE0f8K7/Z9/6En4f/8Agvs//iaPr1D/AKB4fev/AJEPb+p4n/wj+lf88Zf/AAIk/wDiqP8AhH9K/wCeMv8A4ESf/FV7Z/wrv9n3/oSfh/8A+C+z/wDiaP8AhXf7Pv8A0JPw/wD/AAX2f/xNH16h/wBA8PvX/wAiHt/U8T/4R/Sv+eMv/gRJ/wDFUf8ACP6V/wA8Zf8AwIk/+Kr2z/hXf7Pv/Qk/D/8A8F9n/wDE0f8ACu/2ff8AoSfh/wD+C+z/APiaPr1D/oHh96/+RD2/qeJ/8I/pX/PGX/wIk/8AiqX/AIR/S/8AnjN/4ESf/FV7X/wrv9n3/oSfh/8A+C+z/wDiaP8AhXf7Pv8A0JPw/wD/AAX2f/xNH16h/wBA8PvX/wAiHt/U8VXw/pX/ADxl/wDAiT/4qrFnoOmo0myOdc46XMvv/tV7F/wrv9n3/oSfh/8A+C+z/wDiaVfh5+z7/wBCT8P/APwX2f8A8TSeNw7/AOYeH3r/AORGq/qeXeHdJs7e61FrdrqIySRlyl3KNxCADOG5r7f/AGDZJm+HfjGCS5nmS38YSRxedK0hRTpmnttBYkgbmY49Sa+dIfh7+z7uf/ii/h/1H/MPs/T/AHa6nwf4A/Z7Szut3g34fLm6J5sLL/nmn+zXzefUKePoKFKnGD5r3Xo9NkddDHKm9U2ffNFfP37K+t+AfDvgzxHpOn6voGmWkHim++z20NxDDGibIsbUBAA69BXvNjqGn6pbi702+t7uAkqJYJFkQkdRlSRX5zUh7Obh2PahLnipdyxRRRUFBXw5+215k3xp0i3NxcJGPC8L7Y53jG77XcDPykZ4r7jr4d/bW/5LfpP/AGKsP/pZcV7vDVONXNKUKiunfR+jMq7tTdjwb7Gv/P1ff+B03/xVH2Nf+fq+/wDA6b/4qrPw/wDBfg/xd4+8UHxX4V0jWfsml6T5H9oWUdx5W6W+3bd6nbnaucdcD0ruLj4a/Aazma3u/AfgSCVMbo5NNs1YZGRkFcjg1+j1HhoScfq8LJ26f/Injzxfs5cup599jX/n6vv/AAOm/wDiqPsa/wDP1ff+B03/AMVXe/8ACvf2ff8AoS/h/wD+C+z/APiaP+Fe/s+/9CX8P/8AwX2f/wATUe0w3/QPD8P/AJEn676nBfY1/wCfq+/8Dpv/AIqj7Gv/AD9X3/gdN/8AFV3v/Cvf2ff+hL+H/wD4L7P/AOJo/wCFe/s+/wDQl/D/AP8ABfZ//E0e0w3/AEDw/D/5EPrvqcF9jX/n6vv/AAOm/wDiq/Rn9neea6+APw2ubmZ5ppvCekySSSMWZ2NpGSxJ5JJ718R/8K9/Z9/6Ev4f/wDgvs//AImumfwL+z/B4Id4PCPgCOaPSyUK2NmGVhFxj5cg5r5zP8HDHez9jGNPlvt1vbsltb8Tajj1HdNn3xRXnXwn8ZeD4vhX4Njk8V6Ojp4f05WVr6IEEW0eQRu4r0OOSOaNZoZFdHUMrKchgehB7ivgT2R1FFFABRRRQAUUUUAFFFFABXyZ+3l/rvh3/wBfOp/+ioq+s6+TP28v9d8O/wDr51P/ANFRV62Rf8jKh/iRnV+BnzV4C/5LBpf/AGLerf8ApVp1VPjtZ2l7490eK8tYZ0GkTMFljDAHzk5we/Jq34C/5LBpf/Yt6t/6VadUXxt/5KBpH/YGm/8AR6V+q2Usws/5l/6SjwJ/xvkeZXy+B9MmFvqS6FaSsu8JOIY2K8jOGwcZB/Kq3274b/8AP54a/wC/lv8A416d8F7e3uvH3iKO5t45VGj6eQrqGAPnXXrXo+ueLPhl4Zvv7N8QaxoOnXWwSeTdNHGxU9GAPUcHn2NdOIx6o1JR5I2TtqiZVuWXKk2fNX274b/8/nhr/v5b/wCNH274b/8AP54a/wC/lv8A419C/wDCzPgr/wBDf4W/8CIaP+FmfBX/AKG/wt/4EQ1h/asf5YC9tL+V/wBfI+evt3w3/wCfzw1/38t/8asW+o/DVYgDfeGRyf8Alrb+v1r33/hZnwV/6G/wt/4EQ0q/Ez4K4/5G/wALf+BENJ5pB/ZgCrS/lZ4loWrfDOPS40bUvDKENJwZrcfxsfWv0K/Zu+Mnwh034D+B9P1L4qeD7S6g0eFJYZ9ctUkjYA5DKz5B9jXzNH8TfgqEH/FYeFu//LxDXX6T8WfgZFoMEbeOPCSyLBjH2qHIOK+Vz+lDM1T96MeW+y728zso42UPsP8Ar5H3HY31jqljb6lpt5Bd2d3Ek9vcQSCSOaNgGV0ZSQykEEEcEEVPXz78C/2iPgVpfwR+Humal8XPCltd2nhXSYLiGXVIleKRLSJWVgTkEEEEe1e+Wd5a6hZwahYzpNbXMazQyIcq6MAVYexBBr8+ase0TUUUUgM/xB/yAdS/685v/QDX5LXH/JNZf+wGf/Sev1p8Qf8AIB1L/rzm/wDQDX5LXH/JNZf+wGf/AEnr7fgv4sR/h/zOXFdD13x3/wAkD1//ALFG5/8ASNq8KuNJ8M2cD3V5pumQQxjLySQxqqj3JGBXuvjv/kgev/8AYo3P/pG1eEeKP+QLL/10h/8ARqV9vlfLGNapKKfLGL1/7ePDobfMz/t3w3/5/PDX/fy3/wAaPt3w3/5/PDX/AH8t/wDGvqnWG8K+H9Ol1bXF02xsoNvm3FwiIibmCjJIwMsQPqRXN/8ACzPgr/0N/hb/AMCIaJZmo6ShBCVdy2iz56+3fDf/AJ/PDX/fy3/xo+3fDf8A5/PDX/fy3/xr6F/4WZ8Ff+hv8Lf+BENH/CzPgr/0N/hb/wACIaX9qx/lgP20v5X/AF8j59h1D4bCUH7b4aHX/lpb/wCNW7LUvhqusQyf2h4ZAFvKN3m2/GWj4zn2/SveB8TPgrn/AJG/wt/4EQ0q/Ez4K+YD/wAJf4W6H/l4h9qznmUJL4YFRrSTvys0P2M/H3wu8M/GTVbq88aeFtKtZfDMsfmS6lbwRtJ9qgIXJYAtgE464Br7u8N+PvAvjKSeHwf400HXJLVQ06abqUNyYgcgFhGx2g4OM+lfDfhj4pfBCHVJJJvGnhRFNuRlriEc7hXoXwZ+OHwP0X4teIbyb4leFbKzn8O2ESSG/iRHkW5uSyg5wSAVJ9iK/PM/wsZ1p4uMlrbReiXc9PCYqVRqm42PsCiua8G/Ev4ffET7Z/wgnjLR9f8A7P8AL+1f2fdpP5Pmbtm/aTjdsfGeu0+ldLXzJ6IUUUUAfM/7eX/IgeCP+xyj/wDTXqNfIvh3/kqHhH/evv8A0levrr9vL/kQPBH/AGOUf/pr1GvkXw7/AMlQ8I/719/6SvX6Pwt/yJ6n/Xz/AOQPNx3X0/zL/wAfP+Rm8If9e2p/ztaw/hJ/yVtf+xcvP/Sm1rc+Pn/IzeEP+vbU/wCdrWH8JP8Akra/9i5ef+lNrX1EP+RfP/Gv/bTyl/B+T/Un+Mn/ACUu0/7AS/8ApQ9WfgP/AMjx4w/7BWjf+jtQqt8ZP+Sl2n/YCX/0oerPwH/5Hjxh/wBgrRv/AEdqFP8A5gI/43+pL/g/L9UY/wARv+Spa7/162P/AKA9dT+z79zxj/2Gov8A0htq5b4jf8lS13/r1sf/AEB66n9n37njH/sNRf8ApDbUVP8AkX0v8b/9vCf8P5L9Dz3xZpem3vxA8Wy3mn207jVAoaWFWIH2eHjJHTk1zs1x8PbaZ7e4m8OxSxsVeN2gVlI6gg8g11niL/kfPF3/AGFv/baCvQvgLY2V14KupLmzglYa1qChnjDHHntxyK1jVWGwtJxgm3fdFufJG/oeHfbvhv8A8/nhr/v5b/40fbvhv/z+eGv+/lv/AI19GXXxC+D9jdTWN54o8Mw3FtI0M0Uk0QaN1JDKwPQgggj2qL/hZnwV/wChv8Lf+BENc/8Aasf5YC9rL+V/18j54+3fDf8A5/PDX/fy3/xo+3fDf/n88Nf9/Lf/ABr6H/4WZ8Ff+hv8Lf8AgRDR/wALM+Cv/Q3+Fv8AwIho/tWP8sA9rL+V/wBfI+ePt3w3/wCfzw1/38t/8aPt3w3/AOfzw1/38t/8a+h/+FmfBX/ob/C3/gRDR/wsz4K/9Df4W/8AAiGj+1Y/ywD2sv5X/XyPnj7d8N/+fzw1/wB/Lf8Axo+3fDf/AJ/PDX/fy3/xr6H/AOFmfBX/AKG/wt/4EQ0f8LM+Cv8A0N/hb/wIho/tWP8ALAPay/lf9fI+ePt3w3/5/PDX/fy3/wAaPt3w3/5/PDX/AH8t/wDGvof/AIWZ8Ff+hv8AC3/gRDR/wsz4K/8AQ3+Fv/AiGj+1Y/ywD2sv5X/XyPngX3w33f8AH54a/wC/lv8A41Nb6h8Nllyb3w0PlP8Ay0t/b3r6B/4WZ8Ff+hv8Lf8AgRDSr8TPgrn/AJG/wt/4EQ0nmsH9mA1Vl/K/6+R4Rp2pfDVNXMh1Dwyo+zFd3m2/94cda+oP2I/iJ8K/C/jbxo19458KaTBcaXpojM2p20CSOJrndjLAEgFc/UVzCfEz4K+Zn/hMPC3T/n4hrd8K/FT4HwXd003jTwmgaNAN1zCM8tXh51OGYYZ0bxjdrVf8OdFHFypv4X/XyPuLw1458E+NPtP/AAh/jDRNd+x7PtH9m6hDdeTv3bN/lsdu7a2M9dp9K3K+R/gR8dPgjofxD8dT3XxN8LWVrc6boiW7NqESI7I98XC84JG9c4/vD1r6X8H/ABC8D/EK3uLzwP4s0zXYLRxHPLYXCzJG5GQpKkgHHOK/NcRR9hUlTve3U9qlP2kFK1rnQ186ft0f8km0T/sabL/0VPX0XXzp+3R/ySbRP+xpsv8A0VPXRln+/Uf8UfzRU/hZ8Z6b/wAlG8B/9hi6/wDTXe1sftDW9vdT+E4LqCOaNrq63JIoZTiHPIPFY+m/8lG8B/8AYYuv/TXe1ufH/wD4/PCP/X1d/wDoiv1ysk8ZZ/zR/wDbT56r/Gj6f5nkV/b+DNL2f2pBotn5ufL+0LFHuxjON2M4yPzFVPt3w3/5/PDX/fy3/wAa734bQw3HxY0yO4hSRDompfK6gj/XWfY1694g8QfDzwpLDD4l1DRdMe4UtEt15ce8Dg7c9ccfmK7MXjVh60qahGytuvJP9SZVeV8tmz5k+3fDf/n88Nf9/Lf/ABo+3fDf/n88Nf8Afy3/AMa+hf8AhZnwV/6G/wALf+BENH/CzPgr/wBDf4W/8CIa5v7Vj/LAXtpfyv8Ar5Hz19u+G/8Az+eGv+/lv/jU9tqHw1VWzfeGh83/AD0t/Qe9e/f8LM+Cv/Q3+Fv/AAIhpV+JnwV5/wCKv8Lf+BENJ5pB/ZgCrS/lZ4foWqfDSOO6Daj4ZTdcswzNbjPyrz1r7n/Y5+LPwl0H4J2+m6n8TPCOnTR6vqRFvPrNtCyoblyvys4IBGMe1eFx/Ez4Kjd/xWHhbr/z8Q11fhn4r/AuHSxHN438JI3mSHDXUI/iNfNZ9CGZ04wvGNnfT/hzqo4yVP7D/r5H3DouuaL4k0yHWvDusWOq6fc7vJu7K4SeGTaxVtroSpwysDg8EEdqvV80/s4/tA/A3RfhPZ6fqnxX8LWdwmr65IYZtSiRgj6tduhwT0KsrD2Ir6H0LXtF8T6Tba94e1O31HTr1PMt7q3cPHKuSNysOCMg8ivzqceSTR7cXdXL9FFFSMK+A/2sP+Tg9a/7BGmfylr78r4D/aw/5OD1r/sEaZ/KWvpOEv8AkbU/+3v/AElmOI/hs4/4I/8AH54z/wCwtB/6Q29ec+J/+Sg+MP8AsLJ/6SW9ejfBH/j88Z/9haD/ANIbevOfE/8AyUHxh/2Fk/8ASS3r9Ky//fvnP82eC/40vT/I9D/Z/wD+RMv/APsOX/8A6MryiP8A5CWvf9jFrP8A6cLivV/2f/8AkTL/AP7Dl/8A+jK8oj/5CWvf9jFrP/pwuK0yv/fX/hl/6VEzX8SR7N8Cf+SU6D/u3H/pRJXgHh//AJEmy/7B6/8AoFe//An/AJJToP8Au3H/AKUSV4B4f/5Emy/7B6/+gUso/if9uv8AQIfHP1/zPd9N/wCTd7X/ALEtP/SEV4ba6T4ei0qG7u9L05ES3WSSSSFAANoJYkj9TXuWm/8AJu9r/wBiWn/pCK8B8U/8k31X/sCzf+iTUZXyqM5ySdop6/MdHdrzF+3fDf8A5/PDX/fy3/xo+3fDf/n88Nf9/Lf/ABr6u1RfDOi2E2qatDp9paW67pZpY0VEGcZJI4HNcx/wsz4K/wDQ3+Fv/AiGiWZqHxQghKs5bJnzx9u+G/8Az+eGv+/lv/jR9u+G/wDz+eGv+/lv/jX0P/wsz4K/9Df4W/8AAiGj/hZnwV/6G/wt/wCBENL+1Y/ywH7WX8r/AK+R88fbvhv/AM/nhr/v5b/40fbvhv8A8/nhr/v5b/419D/8LM+Cv/Q3+Fv/AAIho/4WZ8Ff+hv8Lf8AgRDR/asf5YB7WX8r/r5Hzx9u+G//AD+eGv8Av5b/AONH274b/wDP54a/7+W/+NfQ/wDwsz4K/wDQ3+Fv/AiGj/hZnwV/6G/wt/4EQ0f2rH+WAe1l/K/6+R88fbvhv/z+eGv+/lv/AI0fbvhv/wA/nhr/AL+W/wDjX0P/AMLM+Cv/AEN/hb/wIho/4WZ8Ff8Aob/C3/gRDR/asf5YB7WX8r/r5Hzx9u+G/wDz+eGv+/lv/jSrffDfn/TPDX/fy3/xr6G/4WZ8Ff8Aob/C3/gRDR/wsz4K/wDQ3+Fv/AiGj+1Y/wAsA9rL+V/18jwK31D4arGf9O8Mj5v+etv/AI1oaFqvw0isnVtS8MoTPKcGa3HVz717cvxM+Cv/AEN/hb/wIhp8XxM+CoU58YeFup/5eIaxqZjCX2YGka8o/ZZ9BfsjfF34R6L+z74a0vU/id4QsLiGbU91vPrVrE6A6jcsuVZwQCpBHHQivo3S9W0vXNPg1bRdStdQsbpfMgurWZZYpV/vK6kqw9wa+HvDfxY+BcOjQRzeOPCSODJlWuoQfvsa9g/Z9/aE+Buk/BnwppuqfFrwra3UFltlhm1OJXQ72OCCcivy3M8F9XnzxlzczfyPYwuIde6cbWPoyiqulappuuaXZ63o19Be6fqFvHdWtzA4eOeGRQySIw4ZWUggjqCKtV5R1nwh+2R/ycK3/YnaT/6W6lXnfwX/AORm8Zf72n/+inr0T9sj/k4Vv+xO0n/0t1KvO/gv/wAjN4y/3tP/APRT1+p5P/yJcP6y/OZ4+YbS+X6HC+Nf+SoeMf8Ar8tP/SC2rtv2e/8AkBeJf+xim/8ASa2rifGv/JUPGP8A1+Wn/pBbV237Pf8AyAvEv/YxTf8ApNbV7tX/AHGl/if/ALcefV/hfJHmt1/yMnib/sPX3/o01618AP8Akl9l/wBhLWP/AE5XNeS3X/IyeJv+w9ff+jTXrXwA/wCSX2X/AGEtY/8ATlc0Yj/dsP8A4X+gq38P5r8meLaH/wAeB/6+Lj/0c9e2fDX/AJIP4c/7Fe3/APSYV4nof/Hgf+vi4/8ARz17Z8Nf+SD+HP8AsV7f/wBJhU43+Bh/8D/KI623zPAtF0nQV8O2F5eaZp4AsopJZZIU4/dglmJH1JJqP7d8N/8An88Nf9/Lf/Gib/km8n/YDP8A6T19RWcegad4XttW1WCygt4LGOa4uJo1CooQFmYkcAckk11V8RHCxpxjCOsU9UXUqch8u/bvhv8A8/nhr/v5b/40fbvhv/z+eGv+/lv/AI19D/8ACzPgr/0N/hb/AMCIaP8AhZnwV/6G/wALf+BENcn9qx/lgT7WX8r/AK+R88fbvhv/AM/nhr/v5b/40fbvhv8A8/nhr/v5b/419D/8LM+Cv/Q3+Fv/AAIho/4WZ8Ff+hv8Lf8AgRDR/asf5YB7WX8r/r5Hzx9u+G//AD+eGv8Av5b/AONH274b/wDP54a/7+W/+NfQ/wDwsz4K/wDQ3+Fv/AiGj/hZnwV/6G/wt/4EQ0f2rH+WAe1l/K/6+R88fbvhv/z+eGv+/lv/AI0fbvhv/wA/nhr/AL+W/wDjX0P/AMLM+Cv/AEN/hb/wIho/4WZ8Ff8Aob/C3/gRDR/asf5YB7WX8r/r5Hzx9u+G/wDz+eGv+/lv/jR9u+G//P54a/7+W/8AjX0P/wALM+Cv/Q3+Fv8AwIho/wCFmfBX/ob/AAt/4EQ0f2rH+WAe1l/K/wCvkfPK33w35/0zw1/38t/8asW2ofDVVbN94ZHzf89bf0HvXv3/AAsz4K/9Df4W/wDAiGlX4mfBXn/ir/C3/gRDSeaQf2YDVWX8r/r5Hh+hap8NI4LgNqXhlM3Dnma3GenPWvuv9jz4tfCTQfgVpul6l8TPCGnTRanqx+zz61awsiG/nK/KzggFSCOOhFeDx/Ez4KgHPjDwt1/5+Ia6zwz8V/gXDpEcc3jfwkjCSQ4a6hB5c18zn0IZnTjG8Y2d9F/wTro4yVP7D/r5H3BouuaL4k02HWvDusWWqafc7vJu7K4SeGTaxVtroSrYYEHB4II7Ver5r/Z1/aC+B2j/AAk0vT9V+LHha0uUvtVZoZtTiVwG1G5ZSQT3VgR7EV9DaHrmkeJNJtde0DUYL/Tr2Pzbe6gfdHKnZlYcEHsR1r87nHlk0e1F3Vy9Xw7+2t/yW/Sf+xVh/wDSy4r7ir4d/bW/5LfpP/Yqw/8ApZcV7vC//I2o/P8A9JZlX/hs8o+Dv/I/eMP+wXo3/oy/rjPihp9hffFTXvttjb3Gy3stvmxq+3MZzjI4rs/g7/yP3jD/ALBejf8Aoy/rk/iN/wAlU8Qf9e9j/wCizX6bhYqWOipK65pflI8GX8eXov0OHun8A2Nw1rfNoFvOmN0cphRlyMjIPI4IP41D9u+G/wDz+eGv+/lv/jXsPwDs7O6h8Ytc2kMpGvoAZIw2P+JfaetdbqXjn4T6PfTaXq3iHw7Z3du2yWCeSJHQ+hB5FbVcxVOco8kUk2tV2diZVmpcqTZ84/bvhv8A8/nhr/v5b/40fbvhv/z+eGv+/lv/AI19C/8ACzPgr/0N/hb/AMCIaP8AhZnwV/6G/wALf+BENZf2rH+WAe2l/K/6+R89fbvhv/z+eGv+/lv/AI1O2ofDX7GV+3eGc+XjHm2/p9a9+/4WZ8Ff+hv8Lf8AgRDS/wDCzPgrt/5G/wALdP8An4hqXmkH9mA1Wl/Kzwu71j4cx+E5lg1Tw2sy6cwQJNAGDeXxjBznNfqZoPxv+C8eh6dHJ8XvBSstpCrK2v2gIOwcH95XxTJ8TPgqbdl/4S/wtnYR/wAfEPpWx8Svit8Fbj4a+IbfTfG/hd7uTSp44lhuod7MYyMDBzk18fxBQjmDjUUox5U9lv8AidtDGSi+Xkev9dj9A6K85t/2jfgLeXEVpafF7wpPPO6xxRR6pEzu5OAqgHJJJwAK9Gr4W1j2AooopAFFFFABRRRQAV8mft5f674d/wDXzqf/AKKir6zr5M/by/13w7/6+dT/APRUVetkX/Iyof4kZ1fgZ81eAv8AksGl/wDYt6t/6VadUXxt/wCSgaR/2Bpv/R6VL4C/5LBpf/Yt6t/6VadUXxt/5KBpH/YGm/8AR6V+rR/5GH/by/8ASUeBU/jfIj+CP/JQPEf/AGB9P/8AR91Wd8UP+Sp6n/2CrD/0O4rR+CP/ACUDxH/2B9P/APR91Wd8UP8Akqep/wDYKsP/AEO4ral/yMl/il/6TIy/5ev0/wAjkZtcsIbiW1K3ckkDBZPJs5pApKhgNyKRnDA9e9N/t6x/54aj/wCC24/+Ir1D4Af8fnjD/r+tf/SZK6vW/jF4B8P6xeaBqWo6h9tsGWO4S30a9uFjZo1kA3xRMhOx0OAe4rStm1enUlH3bJtLR9G/MJTtLljG/wDXoeCf29Y/88NR/wDBbcf/ABFH9vWP/PDUf/Bbcf8AxFe3f8L4+Gn/AEENa/8ACc1L/wCMUf8AC+Php/0ENa/8JzUv/jFZ/wBsYj+79z/+SDnl/I/6+R4mNfscf6jUf/Bbcf8AxFWY/EWniFQYdRzt/wCgbcf/ABFex/8AC+Php/0ENa/8JzUv/jFO/wCF9fDP/oIa1/4Tmpf/ABik82xD/l+5/wDyQ1OX8j/r5HkH/CSab/wiv2Xy9R83+z/L2/2bc/e8vGP9X61+iHgn9pX4K6P4B0CHVPGTWrWOj2q3HmaZeARFIVD7j5WBjByfavk//hfXwz+z7f7Q1rOzH/Iual6f9cK0/Hv7QXwt1T4X+ItFsdT1qW8u9Bu7WGP/AIRvUxula3ZVXJt8DJIGScV8lxBh55pyTm/hT2Xp5s7aGLqQduTc/QyORZI1kjOVcBlPqDTq8Ls/2zP2do7a3il8Y6tEdqRlpPC2rIoJwOWNsABnuTivdK/P6lKpS0qRa9VY9lO+xn+IP+QDqX/XnN/6Aa/Ja4/5JrL/ANgM/wDpPX60+IP+QDqX/XnN/wCgGvyWuP8Akmsv/YDP/pPX2fBfxYj/AA/5nNiuh6747/5IHr//AGKNz/6RtXhHij/kCy/9dIf/AEale7+O/wDkgev/APYo3P8A6RtXhHij/kCy/wDXSH/0alfbZf8AwcR/gX5TPDofqe4fHj/kmOof9fumf+l9vXjN9qFrpsIuLyRlRnWNdsbOWZjgABQSST7V7N8eP+SY6h/1+6Z/6X29eOD/AJD/AIY/7GLTP/SlK3wFWVClWqR3ST/Mih8Hzf6FP+3rH/nhqP8A4Lbj/wCIo/t6x/54aj/4Lbj/AOIr6W8VeMPD/grTo9U8R3csFvNOttGYrWW4dpGBIUJErMeFPbtXL/8AC+Php/0ENa/8JzUv/jFT/bGI2937n/8AJCVRy1UX/XyPEf7esf8AnhqP/gtuP/iKVdesc/6jUf8AwW3H/wARXtv/AAvj4af9BDWv/Cc1L/4xR/wvj4af9BDWv/Cc1L/4xR/bGI/u/c//AJIrnl/I/wCvkeMW/iDT1kJMOo42/wDQNuP/AIirem+JNNi1KaSSPUQrQIoP9m3PUM3/AEz969dX48/DT/oIa1/4Tmpf/GKdH8evhnuJ/tDWun/Qual/8YqJ5piJ/wAv3P8A+SLjVkteR/18jsf2Nfi54B8F+IPHtx4o1a70+PULXR1tmk0u7PmGNr3eBtiPTzE/76FfZPgn4leCfiNHeSeDdaOoLp7Ilzm2mh8suCVGJEUnIB6V8Q+F/wBof4U2U141zqmtIJFj2/8AFNamc43Z6W/uK7v4I/tSfBXw34l8cXmta9rVvDqVxYNat/wi+qv5gS32twtsSMHjnFfnGeZfUnWnio3k5PZL/hz1MJipTfJKNkfZVFcj8Nvit4F+LmkXmueAdWn1CzsLw2Fy01hcWbxziNJChjuI0f7ksZzjHzdetddXzDTi+WW56J8z/t5f8iB4I/7HKP8A9Neo18i+Hf8AkqHhH/evv/SV6+uv28v+RA8Ef9jlH/6a9Rr5F8O/8lQ8I/719/6SvX6Nwt/yJ6n/AF8/+QPNx3X0/wAy/wDHz/kZvCH/AF7an/O1rD+En/JW1/7Fy8/9KbWtz4+f8jN4Q/69tT/na1h/CT/kra/9i5ef+lNrX1EP+RfP/Gv/AG08pfwfk/1J/jJ/yUu0/wCwEv8A6UPVn4D/API8eMP+wVo3/o7UKrfGT/kpdp/2Al/9KHqz8B/+R48Yf9grRv8A0dqFP/mAj/jf6kv+D8v1Rj/Eb/kqWu/9etj/AOgPXU/s+/c8Y/8AYai/9IbauW+I3/JUtd/69bH/ANAeup/Z9+54x/7DUX/pDbUVP+RfS/xv/wBvCf8AD+S/Q4fxF/yPni7/ALC3/ttBXpH7P/8AyI93/wBhrUP/AEca838Rf8j54u/7C3/ttBXpH7P/APyI93/2GtQ/9HGlW/3Sj8wq/wAP7jyaD/j+1r/sPav/AOl89Uo/EemTRiSFb6RG5Vk0+4ZT9CEwauwf8f2tf9h7V/8A0vnr2j4F/wDJKPD/AP1xl/8ARz11PGVMLhcOqdtYrfyUfNdy5yUFzHhn9vWP/PDUf/Bbcf8AxFH9vWP/ADw1H/wW3H/xFfV9FZf2tif7v3P/AOSMfrC7fj/wD5Q/t6x/54aj/wCC24/+Io/t6x/54aj/AOC24/8AiK+r6KP7WxP937n/APJB9YXb8f8AgHyh/b1j/wA8NR/8Ftx/8RR/b1j/AM8NR/8ABbcf/EV9X0Uf2tif7v3P/wCSD6wu34/8A+UP7esf+eGo/wDgtuP/AIij+3rH/nhqP/gtuP8A4ivq+ij+1sT/AHfuf/yQfWF2/H/gHyh/b1j/AM8NR/8ABbcf/EUf29Y/88NR/wDBbcf/ABFfV9FH9rYn+79z/wDkg+sLt+P/AAD5RXX7H/nhqP8A4Lbj/wCIqe38QaerNmHUf/Bbcf8AxFfU9OWk81xL/l+5/wDyQ1iF2/H/AIB8w6V4k0yG+u5JI9QVXSIKf7Nuecb8/wDLP3FfUf7G/wAZPh34L0/xlH4o1m609r3UraS3Eml3Z8xVt1UkbYj34pkf32+g/rXUeD/9Xef9dF/9BrwM9VTM8P7Ko0ldPRevmdVHHezekT6V8E/EHwf8RtOutV8F6yuo21ldGyuGEMkRinEaSFGWRVYHZLG3Towrxb9uj/kk2if9jTZf+ip66L9mf73xM/7HNP8A0yaVXO/t0f8AJJtE/wCxpsv/AEVPX59gqfscyp0+00v/ACY9xT56XN3X6Hxnpv8AyUbwH/2GLr/013tbnx//AOPzwj/19Xf/AKIrD03/AJKN4D/7DF1/6a72tz4//wDH54R/6+rv/wBEV+sVf99X+KP/ALaeDW/jR9P8zl/hh/yVzTP+wHqX/o2zrU+Nv/I9aF/2Cbv/ANHQVl/DD/krmmf9gPUv/RtnWp8bf+R60L/sE3f/AKOgrer/AMjJ/wCKP/pMTJ/xV6f5nA3WsWNncmzk+0vMEWQrDayy4ViQCSikDJVuvpUX9vWP/PDUf/Bbcf8AxFd78E/+Sia3/wBgW1/9Hy16N4m+Kfgnwfq39h67f3qX32dLoxW2l3d1tidnVWLQxMoyY34Jz8prbEZpXpVZQXLZO2qf+YSnaXKo3/r0Pnz+3rH/AJ4aj/4Lbj/4ij+3rH/nhqP/AILbj/4ivbv+F8fDT/oIa1/4Tmpf/GKP+F8fDT/oIa1/4Tmpf/GKx/tjEf3fuf8A8kHPL+R/18jxNdfsf+eGo/8AgtuP/iKsw+IdPWPmHUR/3Dbj/wCIr2P/AIXx8NP+ghrX/hOal/8AGKd/wvr4Z/8AQQ1r/wAJzUv/AIxSeb4h/wAv3P8A+SGpy/kf9fI8n0TxNpcGnrHMmoKwklOP7NuehkYj/ln6GvuH9nD4/fCfw38D/CGha54lntL+zsPLngfS7wsjeYxwcREdCK+eY/j18MwvOoa11P8AzLmpev8A1wrq9D/aQ+EdvpNtDNrGtK6Jhh/wjOqHHJ9LevmM+oTzaMFUkly32Xe3mzro4upT+x/X3H3LoOuaT4m0Sw8R6DeJeabqltFeWdwgIWaGRQyOMgHBUg8jvV+vln4I/tcfAfwv8FfAmg674m1m1vtK8M6ba3kZ8Laswiljto1ddy2xU4IPIJHHWvprR9W0/X9Jsdd0m48+x1G2ju7aXay+ZFIoZGwwBGVIOCAfWvzmpRqUv4kWvVWPbTuXK+A/2sP+Tg9a/wCwRpn8pa+/K+A/2sP+Tg9a/wCwRpn8pa+g4S/5G1P/ALe/9JZliP4bOP8Agj/x+eM/+wtB/wCkNvXnPif/AJKD4w/7Cyf+klvXo3wR/wCPzxn/ANhaD/0ht6858T/8lB8Yf9hZP/SS3r9Ky/8A375z/Nngv+NL0/yPQ/2f/wDkTL//ALDl/wD+jK8oj/5CWvf9jFrP/pwuK9X/AGf/APkTL/8A7Dl//wCjK8oj/wCQlr3/AGMWs/8ApwuK0yv/AH1/4Zf+lRM1/EkezfAn/klOg/7tx/6USV4B4f8A+RJsv+wev/oFe/8AwJ/5JToP+7cf+lEleAeH/wDkSbL/ALB6/wDoFLKP4n/br/QIfHP1/wAz3fTf+Td7X/sS0/8ASEV4D4p/5Jvqv/YFm/8ARJr37Tf+Td7X/sS0/wDSEV4D4p/5Jvqv/YFm/wDRJrPLf4dX/B/mVR+J+p9G/Gr/AJJb4h/69l/9GLXiF9fWum25uryQpGGRMqjMSzsFUAKCSSzAAAd69v8AjV/yS3xD/wBey/8Aoxa8M1D/AF2kf9h3Sf8A0vgrbL6rowr1I7qKf3cxFDWPz/yIf7esf+eGo/8AgtuP/iKP7esf+eGo/wDgtuP/AIivq+in/a2J/u/c/wD5Ij6wu34/8A+UP7esf+eGo/8AgtuP/iKP7esf+eGo/wDgtuP/AIivq+ij+1sT/d+5/wDyQfWF2/H/AIB8of29Y/8APDUf/Bbcf/EUf29Y/wDPDUf/AAW3H/xFfV9FH9rYn+79z/8Akg+sLt+P/APlD+3rH/nhqP8A4Lbj/wCIo/t6x/54aj/4Lbj/AOIr6voo/tbE/wB37n/8kH1hdvx/4B8of29Y/wDPDUf/AAW3H/xFH9vWP/PDUf8AwW3H/wARX1fRR/a2J/u/c/8A5IPrC7fj/wAA+UP7esf+eGo/+C24/wDiKcNfscf6jUf/AAW3H/xFfVtFH9rYr+79z/8Akg+sLt+P/APluDxDp6xANDqIPP8AzDbj1/3Kv6P4o0qHS7eKRNQV1TBH9m3PH/kOvpdelPi/1a1jPMcRL+X7n/8AJGkcUo/Z/H/gHqvwJ/aE+Eeg/BD4e6HrHiia1vtO8K6TaXULaXeZiljs4ldTiLGQwI49K9/0rVLHWtLs9Z0ybzrO/t47q3k2su+J1DK2GAIyCDggGvlG+/5J3cf9gV//AEQa+kPhZ/yTHwh/2AdP/wDSdK/I8xwCwLilK97nuYTFPE3urWPjj9sj/k4Vv+xO0n/0t1KvO/gv/wAjN4y/3tP/APRT16J+2R/ycK3/AGJ2k/8ApbqVed/Bf/kZvGX+9p//AKKev0HJ/wDkS4f1l+czjzDaXy/Q4Xxr/wAlQ8Y/9flp/wCkFtXbfs9/8gLxL/2MU3/pNbVxPjX/AJKh4x/6/LT/ANILau2/Z7/5AXiX/sYpv/Sa2r3av+40v8T/APbjz6v8L5I81uv+Rk8Tf9h6+/8ARpr1r4Af8kvsv+wlrH/pyua8luv+Rk8Tf9h6+/8ARpr1r4Af8kvsv+wlrH/pyuaMR/u2H/wv9BVv4fzX5M8W0P8A48D/ANfFx/6OevbPhr/yQfw5/wBivb/+kwrxPQ/+PA/9fFx/6OevbPhr/wAkH8Of9ivb/wDpMKnG/wADD/4H+UR1tvmfP03/ACTeT/sBn/0nr6F+IP8AyQ3Xv+xZn/8ASY189Tf8k3k/7AZ/9J6+hfiD/wAkN17/ALFmf/0mNTmv8OP+AdX4o+v+R4xeXlvp9u11dMyxqVBKozHJIAACgk5JA4FVP7esf+eGo/8AgtuP/iKb4k/5Bf8A28W3/o9K+sa9TH4+thq3s6drWT1T7vzXYU5qmlofKH9vWP8Azw1H/wAFtx/8RR/b1j/zw1H/AMFtx/8AEV9X0Vx/2tif7v3P/wCSM/rC7fj/AMA+UP7esf8AnhqP/gtuP/iKP7esf+eGo/8AgtuP/iK+r6KP7WxP937n/wDJB9YXb8f+AfKH9vWP/PDUf/Bbcf8AxFH9vWP/ADw1H/wW3H/xFfV9FH9rYn+79z/+SD6wu34/8A+UP7esf+eGo/8AgtuP/iKP7esf+eGo/wDgtuP/AIivq+ij+1sT/d+5/wDyQfWF2/H/AIB8of29Y/8APDUf/Bbcf/EUf29Y/wDPDUf/AAW3H/xFfV9FH9rYn+79z/8Akg+sLt+P/APlJdfsf+eGo/8AgtuP/iKsW/iHT1jAMOojk/8AMNuPX/cr6lpy9KTzTFP+X7n/APJDWIXb8f8AgHzPovifS4dOjjlTUFYPIcf2bc93Yj/lnX3L+zz+0B8JvDvwS8GaHrXiae0vrLSoobiF9LvCY3Gcg4ixXmsX+rH4/wA67XRf+Retv+vf+lfK5/Qnmip+1lblvsu9vPyOyjj3T2ifTeh61pfiTRdP8RaHeJd6dqlrFe2dwgIWaCVA6OMgHBVgeR3r4r/bW/5LfpP/AGKsP/pZcV9Rfs9/8kC+Gn/Yn6N/6RRV8u/trf8AJb9J/wCxVh/9LLivleF/+RtR+f8A6Sz2a/8ADZ5R8Hf+R+8Yf9gvRv8A0Zf1yfxG/wCSqeIP+vex/wDRZrrPg7/yP3jD/sF6N/6Mv65P4jf8lU8Qf9e9j/6LNfp+E/3+P+KX5SPBl/Gl6L9Dqf2ff+Pfxl/2H0/9N9nXB69/yPHiz/sLt/6JirvP2ff+Pfxl/wBh9P8A032dcHr3/I8eLP8AsLt/6JirTBf8jB/4p/mzNfxJei/Qxf8AhINNLOsa3snlyPGzR2M7ruVirAMqEHBBHB7Uf29Y/wDPDUf/AAW3H/xFezfs/wD/ACIc/wD2GtS/9KXq5c/HL4bWt1cWcmp6o8lrPJbSmHQb+VBJG5RwHSEq2GUjIJHFN5xiE/s/c/8A5IHP3nGMW7f12PDf7esf+eGo/wDgtuP/AIij+3rH/nhqP/gtuP8A4ivbv+F8fDT/AKCGtf8AhOal/wDGKP8AhfHw0/6CGtf+E5qX/wAYpf2xiP7v3P8A+SDnl/I/6+R4n/b9jj/Uaj/4Lbj/AOIqS/8AEFhJYTxrDqJZoyAP7NuPT/cr2j/hfPw0/wCghrX/AITmpf8Axilb48/DQqR/aGtf+E5qX/xiplm2Il/L9z/+SGqkv5H/AF8jzePxZoy32nSH+0NsWpWUjH+zbnhVuI2Y/wCr7AE1+kNj+0d8GNS1Cy0q18ZZudQuobG2WTT7qMSTzSLHEm54goLO6qMkckV8WL8fPhlvQ/2hrXDqf+Rb1L1H/TvW94m/aK+E94mhi21bWn+zeKfD17L/AMU1qY2wwataTStzb87Y43bA5OMAEkCvjeIsLPMZ/WJPWMdkt933Z34bFzTUeTdn3/RXkHh/9rL4D+KNe07wzo3izUn1HVrlLOzjn8OanbpJM5wq+ZLbqi5/2mAr1+vhJ050nyzTT8z107hRRRUDCiiigAr5M/by/wBd8O/+vnU//RUVfWdfNv7ZHw68fePB4Ln8C+ErzXTpdxfNdx200KNGskcaqf3siA5IPQ9q9LJ6sKGPo1KjtFSTbIqK8GkfJPgL/ksGl/8AYt6t/wClWnVF8bf+SgaR/wBgab/0eldN4f8Ahv8AErwp8YNF/wCEs8A6no32rw3rH2f7RPav5u2603djypXxjcvXH3hjPNc/8c7G+t/iFo4ubOSInRpsbivP79PQ1+o4bF0MVjlUoyTTktv8KPAqxca2vYq/BH/koHiP/sD6f/6Puqzvih/yVPU/+wVYf+h3FaXwRV1+IHiPcpH/ABJ9P/8AR91Wb8UP+Sp6n/2CrD/0O4rvpf8AIyX+KX/pMjH/AJev0/yOg+AH/H54w/6/rX/0mSuO8Wf8lI8Z/wDYTt//AE3Wldj8AP8Aj88Yf9f1r/6TJXHeLP8AkpHjP/sJ2/8A6brSjC/8jD/t6f8A7cC/iS9F+hkWdxqmpec+k+FNd1CKCZ7d5rWzMqb1OCMg9en5irH2XxT/ANE/8U/+Cxq9P/Z7/wCRU1j/ALD93/KOvUKcszxSk0mt308/Umdbkly2PmD7L4p/6J/4p/8ABY1H2XxT/wBE/wDFP/gsavp+ip/tPFd193/BI+seR8wfZ/FG3/kn/ir/AMFj1JeQeKJLCeFfh/4q3PCyj/iWP1KkV9N0r/6tv92k8yxT6r7v+CUsT5HzpqkniK4014Y/AHisudv/ADC37MDX6Hf8NPeBVlgjuPDnjG2W4nitlkuNFeOMPI6ogZmIAyzKMn1rwCX/AFZ/Cum8ff8AICtv+wzpH/pwt6+O4iwzx376rLWMXt953YbHS5lG27PqjxB/yAdS/wCvOb/0A1+S1x/yTWX/ALAZ/wDSev1s1uKSfRb+GFC8klrKqqo5JKEACvzM174C/HjRfh1qKal8IdaijsNFlFxN9rsSiBIDubi4yQME9M+1ebwpjcPg5VvrE1G8dL/M9XERlK1jpPHf/JA9f/7FG5/9I2rwjxR/yBZf+ukP/o1K+gfH2k6tH8AfEDyabMqr4RuSzFk4H2Nv9qvAPFEcg0WXMZA8yH0/56pX3uWzjKjiLP7C/KZ4VBW+89u+PH/JMdQ/6/dM/wDS+3rxwf8AIf8ADH/YxaZ/6UpXsnx4z/wrHUOP+X3TP/S+3rxsf8h/wx/2MWmf+lKVthv93xH+Ff8AtxFD4Pm/0PVP2gP+Rc0L/sPQf+iZq8nu75re4s7OCwvL26v5Wht7e0hMsjsI2kOFHoqMfwr1j9oD/kXNC/7D0H/omavO/Cf/ACVHwP8A9hK7/wDTbd1pgq0qGFq1Ibpr9BUf4d/Up/ZfFP8A0T/xT/4LGo+y+Kf+if8Ain/wWNX0/RUf2niu6+7/AIJn9Y8j5g+y+Kf+if8Ain/wWNQLbxQP+af+Kv8AwWPX0/RR/aeK7r7v+CP6x5HzNbw+JlLbvh/4q5x/zDH96t6X/wAJHb3F20ngDxUBIybf+JW/ZcV9HrT4vvP+FZzzDEy3a+7/AIJccTy62Lf7I/xZsfh14T8V6f4m8E+M4ptQ8SG+gEWiyODF9gs48kg8HdE/HsK+q/h78RdB+Jek3WseH7fUIIrK9ewmjvrcwSpMqI5BQkkcSL196+c/Bv8Ax53f/X1/7TSvUf2Y/wDkA+Mv+xvvP/Se2r8zz3BRpVJYi93KTv8AO7PYwWLlXfI1sji/28v+RA8Ef9jlH/6a9Rr5F8O/8lQ8I/719/6SvX11+3l/yIHgj/sco/8A016jXyL4d/5Kh4R/3r7/ANJXr6bhb/kT1P8Ar5/8gLHdfT/Mv/Hz/kZvCH/Xtqf87WsP4Sf8lbX/ALFy8/8ASm1rc+Pn/IzeEP8Ar21P+drWH8JP+Str/wBi5ef+lNrX1EP+RfP/ABr/ANtPKX8H5P8AUn+Mn/JS7T/sBL/6UPVn4D/8jx4w/wCwVo3/AKO1Cq3xk/5KXaf9gJf/AEoerPwH/wCR48Yf9grRv/R2oU/+YCP+N/qS/wCD8v1Rj/Eb/kqWu/8AXrY/+gPXU/s+/c8Y/wDYai/9IbauW+I3/JUtd/69bH/0B66n9n37njH/ALDUX/pDbUVP+RfS/wAb/wDbwn/D+S/Q4fxF/wAj54u/7C3/ALbQV6R+z/8A8iPd/wDYa1D/ANHGvN/EX/I+eLv+wt/7bQV6R+z/AP8AIj3f/Ya1D/0caVb/AHSj8wq/w/uPJoP+P7Wv+w9q/wD6Xz17R8C/+SUeH/8ArjL/AOjnrxeD/j+1r/sPav8A+l89e0fAv/klHh//AK4y/wDo56MT/u+G/wAH6RCv8Pz/AMzvKKKK4zjCiiigAooooAKKKKACiuIv38V61481TQtK8WSaRZ6dplhdKsdlDMXknkulYkyAkYEC4A9TVn/hF/HP/RULv/wVWv8A8TWKqt/DFv7v8y+S27Oupy1wXhNvGV3qniXS9Q8YG6/sfUorSGR9PiUsjWdvNyExzumYfQCumWz8UL9zXrA/9dNNY/ylFONTnV7P8P8AMHGz3NmP77fQf1rqPB/+rvP+ui/+g1wEcPi1Xb/iYaRJwP8AlzlT1/6amum8It4xWO72Q6NJ+8XrJKn8P+61c2Ll7mxcUez/ALM/3viZ/wBjmn/pk0qud/bo/wCSTaJ/2NNl/wCip6l/ZvvPG8bfEj7P4f0WcHxgnmbtWljIb+xdL4A+ztkYwckjkkY4yYv2sPDPxa+IPw507R/DPw4TUry1122vXhs9WiLGNI5QxHmrGvVh3r8+p1I0szVSbslUu/8AwI+opK9CK8l+R8Z6b/yUbwH/ANhi6/8ATXe1ufH/AP4/PCP/AF9Xf/oimXnw3+M3hPxx4D1LxV8Ida0y3bWriKN5L6wcSSHS747BsnODtDHnAwp5zgGD9oCbXIrrwm194Q1W0Aurrb5j2zbv3HbZK361+lwx+GxWKU6M+Zc0dv8At08avCUa0b9v8zB+GH/JXNM/7Aepf+jbOtT42/8AI9aF/wBgm7/9HQVznw11Zofitpkkuk6iMaLqQ2rBuP8ArbTnCk+n6itL40a5bS+NtDkaz1GMLpV2MPYzA/66Htt5r0KtSP8AaTd/tR/9JiYOL9qvT/Mt/BP/AJKJrf8A2BbX/wBHy1U+Kv8AyVa+/wCwFp3/AKPvKh+DPiDTLf4g61JNJOinRrZfmtZRz58v+zxVX4oeINGl+KV7MuoRhDoenrlsryJrzPUe4op1If2knf7Uv/SZBZ+0fp/kYsNzqF7d3VnpPhvWNTazZFmaytTKqFlDDODxkevoasfZfFP/AET/AMU/+Cxq6z4C+IvD8OreL/O1ywj3z2W3fcou7EJzjJ5r2WPXNFl/1esWL/7twh/rWlTNa6qSjGSsm1t2fqTUqckuWx83fZfFP/RP/FP/AILGo+y+Kf8Aon/in/wWNX01HdWsv+quIn/3XBqWp/tPFd193/BM/rHkfMP2fxR/0T/xV/4LHqxDH4mWNVPw/wDFWR/1DHr6Wpy9KTzLFPqvu/4JSxHkfN0H/CSJ4eSzb4f+K/NFmI8f2W/3tmK+6/AX7SXg3wp8L/DlprvhbxnbHR9BtI7yRtDk2ReVbqJCWzjA2nn0FeTr/wAe4/3P6VueOf8Akk3iD/sXbv8A9Jmr5TP8O8x5ZVpfCna3yOyhj5Rdktz69s7qO+s4L6FWCXEayqG6gMARnHfmvgn9rD/k4PWv+wRpn8pa+6/Dv/Iv6Z/15w/+gCvhT9rD/k4PWv8AsEaZ/KWvnuEv+RtT/wC3v/SWeziP4bOP+CP/AB+eM/8AsLQf+kNvXnPif/koPjD/ALCyf+klvXo3wR/4/PGf/YWg/wDSG3rznxP/AMlB8Yf9hZP/AEkt6/Ssv/375z/Nngv+NL0/yPQ/2f8A/kTL/wD7Dl//AOjK8oj/AOQlr3/Yxaz/AOnC4r1f9n//AJEy/wD+w5f/APoyvKI/+Qlr3/Yxaz/6cLitMr/31/4Zf+lRM1/EkezfAn/klOg/7tx/6USV4B4f/wCRJsv+wev/AKBXv/wJ/wCSU6D/ALtx/wClEleAeH/+RJsv+wev/oFLKP4n/br/AECHxz9f8z3fTf8Ak3e1/wCxLT/0hFeA+Kf+Sb6r/wBgWb/0Sa9+03/k3e1/7EtP/SEV4D4p/wCSb6r/ANgWb/0Sazy3+HV/wf5lUfifqfRvxq/5Jb4h/wCvZf8A0YteGah/rtI/7Duk/wDpfBXufxq/5Jb4h/69l/8ARi14ZqH+u0j/ALDuk/8ApfBVYX+Bif8AB+kiMP8AD8/8j6pooorjOMKKKKACiiigAooooAKKKKACiiigBy9KfF/q1pi9KfF/q1qWUdNff8k7uP8AsCv/AOiDX0h8LP8AkmPhD/sA6f8A+k6V8333/JO7j/sCv/6INfSHws/5Jj4Q/wCwDp//AKTpX5/n/wAVP5/oe7le0vkfHH7ZH/Jwrf8AYnaT/wClupV538F/+Rm8Zf72n/8Aop69E/bI/wCThW/7E7Sf/S3Uq87+C/8AyM3jL/e0/wD9FPX2WT/8iXD+svzmTmG0vl+hwvjX/kqHjH/r8tP/AEgtq7b9nv8A5AXiX/sYpv8A0mtq4nxr/wAlQ8Y/9flp/wCkFtXbfs9/8gLxL/2MU3/pNbV7tX/caX+J/wDtx59X+F8kea3X/IyeJv8AsPX3/o01618AP+SX2X/YS1j/ANOVzXkt1/yMnib/ALD19/6NNetfAD/kl9l/2EtY/wDTlc0Yj/dsP/hf6Crfw/mvyZ4tof8Ax4H/AK+Lj/0c9e2fDX/kg/hz/sV7f/0mFeJ6H/x4H/r4uP8A0c9e2fDX/kg/hz/sV7f/ANJhU43+Bh/8D/KI623zPn6b/km8n/YDP/pPX0L8Qf8Akhuvf9izP/6TGvnqb/km8n/YDP8A6T19C/EH/khuvf8AYsz/APpManNf4cf8A6vxR9f8jwvxJ/yC/wDt4tv/AEelfWNfJ3iT/kF/9vFt/wCj0r6xrozb/ef+3V+cjLEbL5/oFFFFeccwUUUUAFFFFABRRRQAUUUUAFOXpTacvSgaHxf6sfj/ADrtdF/5F62/69/6VxUX+rH4/wA67XRf+Retv+vf+lefjNkaQPaf2e/+SBfDT/sT9G/9Ioq+Xf21v+S36T/2KsP/AKWXFfUX7Pf/ACQL4af9ifo3/pFFXgv7Wnwp+KHjL4qaZ4i8F+BNQ12wj8Px2UktrPbJ5cwuZnKkTSofusp4z1r4bh6vTw2ZU6taVoq92/Rn1dVOVNpHgHwd/wCR+8Yf9gvRv/Rl/XJ/Eb/kqniD/r3sf/RZr0f4b+A/H3hf4keLdP8AFHg2/wBJu30fRpVguJrdmMZl1ABsxyMMEgjrnivPfiVaXlv8VvEEdxavG/2ex+Viv/PI+hr9Ny3E0cRjITpSunKX5SPBnFxryv2X6HSfs+/8e/jL/sPp/wCm+zrg9e/5HjxZ/wBhdv8A0TFXe/s+qy2/jIMpB/t9P/TfZ1wWvf8AI8eLP+wu3/omKuvBf8jB/wCKf5syX8SXov0PTP2f/wDkQ5/+w1qX/pS9eR2v/Hzqv/Ya1T/0tmr1z9n/AP5EOf8A7DWpf+lL15Ha/wDHzqv/AGGtU/8AS2ajKv8Ae/8At2X5xCPxy9Runza1q1nFqOl+C/Ed3azruimhsC6OPUEHBqx9l8U/9E/8U/8AgsavZfgb/wAkn8Of9erf+jGruqmOaYqUU7r7v+CROtyycbHzB9l8U/8ARP8AxT/4LGo+y+Kf+if+Kf8AwWNX0/RT/tPFd193/BJ+seR8w/Z/FGR/xb/xV1/6Bj1NcQ+JnEW34f8Air5biFz/AMSx+iyKT+gr6YpW7f7y/wAxUyzHFS6r7v8AglrE9bHjPgXWNW0n4jeDtavPAfi1bXTdes7u4ZdJckRo+WIHc+1fe2g/tEeC9e8RaV4Zj0PxTZXes3BtbR77SHgiaURvIVLscA7I3P8AwGvn3T/+QlZf9fCfzrsI/wDkpPw1/wCxnb/0231fEcR4X61J4qpL3lH5HoYTGylJU7bs+pKKKK+HPaCiiigAooooA8T+PHhPx5qvjnwf4p8HeDpvEFvpmk6zp95HDe21u8T3M2nvE37+RAwItZQcE449a+QP2jbHx1a/ETQ18SeAb3RXbRZ/KSa+tJvMHnpkgwysBj3xX6V18z/tSfA/4l/FDxroWveBtN066t9O0uWzn+13wt/neYONvysTgLzwOo969/Ic0+pYqmqsrU07vTyOSvho1G521Pkz4LLdL8QvEfn2bRH+xtPwCynP7+69DWT8UN3/AAtTU8rj/iVWH/odxXqnhP4R/EPwH8Vtb0vxZpunW91P4e064jW3vvOUxm5vFyTsGDlTxXm/xc028s/izqcVxGgY6Rp7fK+eN9x7V+jZdjqOMxsKlKV05S/KR49SHJWkn2X6Gn8AP+Pzxh/1/Wv/AKTJXHeLP+SkeM/+wnb/APputK7P4Boy33jEMOft1r/6TJXG+LP+Sk+NP+wnb/8AputK7cJ/v/8A29P/ANuMl/El6f5Hf/s9/wDIqax/2H7v+UdeoV5f+z3/AMiprH/Yfu/5R16hXDL4per/ADOat8bCiiuO1zU/GV14zTwz4Z1XSNPiTSxfSSX2myXbOxlKbRsni2jAzzms5z5ERFcx2NK/+rb/AHa5H+y/it/0O/hb/wAJm4/+TqqaHqXxAuNe1zw/qeteH7g6XDayJLDpE0O/zlkJBBuXxjZ1z3qPatNJxevp/mWoeZ3sv+rP4V03j7/kBW3/AGGdI/8AThb1wUn/AAlqxn/kES9P+esf/wAVXSeOrrxguh2/naLpLr/bGk8x6lIDn+0LfHBgx1x3ryc2l+5l/hf5HRhl+8j6o+0a534i6VqGvfD7xPoek2/n3uo6Ne2ltFuVfMlkgdUXLEAZYgZJA9aP7a8YR/67wSr/APXDU42/9DVaP+Em1yP/AF3w91z/AHo57Jx/6PB/Svzg+pPkT4s+G/i9pfwH8X2eo/CDU4Le08KX0U902racyoiWjhnKrcFiAATgAn0r5T8WR6kNCmMmmSIvmQ5YyIcfvU9DX6cfGC51bxp8J/GfgzTPCWuQ6hr2gX+m2vnWwMYmmt3jTc0bNhdzDJAPFfCHxI+DPxc0PwbqOqa14R+zWlr5Uk0m27baolTv9mC/mwr7nh/PqdGliI4yaTkko6PXSXZeaPPqYOMLezRv/HgP/wAKw1HKEf6Zpncf8/8Ab143g/2/4Y/7GLTP/ShK9i+PV5b/APCr9S3yBMXmmnEkcqHi/t/7yCvEv7Z0ka74aZtUs1C+INNZt06jAFwmTz2r7HB4inPD4i0vsr9TyaMWofN/oevftAf8i5oX/Yeg/wDRM1ed+E/+So+B/wDsJXf/AKbbuu4+PGsaTdeHdD+y6pZzY12A/u51bjyZvQ1w3hGSOT4oeB/LdW/4mV30Of8AmG3daYdp4Ot/iX/tpNNNU/k/yPpSiiiuQ4gooooAVafF95/wpi0+L7z/AIUmUdV4N/487v8A6+v/AGmleo/sx/8AIB8Zf9jfef8ApPbV5d4N/wCPO7/6+v8A2mleo/sx/wDIB8Zf9jfef+k9tXxfEX8P/t7/ADPXyv8AiP0OL/by/wCRA8Ef9jlH/wCmvUa+RfDv/JUPCP8AvX3/AKSvX3N+1d8K/GnxY8G+HdL8DW1jcXuk+Ik1SaO7uvIVoRZXcBw21ud1wnGOma+VLv4D/FjwH8RvBd94t0fSbeC5mv4omt9T84lvsrnkbBgY7118OZlhcPl8sLUnacp3Ss/7vlboztxsJSi5Laxyfx8/5Gbwh/17an/O1rD+En/JW1/7Fy8/9KbWun/aG0nULHxN4O+1Rxjfbapt2yZ6G19q5r4TRuvxbTcB/wAi5ed/+nq1r7SlOM8vm4/zr/208dfwfkyX4yf8lLtP+wEv/pQ9WfgP/wAjx4w/7BWjf+jtQqt8ZP8Akplp/wBgJf8A0oerPwH/AOR48Yf9grRv/R2oVf8AzAR/xv8AUl/wfl+qMf4jf8lS13/r1sf/AEB66n9n37njH/sNRf8ApDbVy3xG/wCSpa7/ANetj/6A9dT+z79zxj/2Gov/AEhtqKn/ACL6X+N/+3hP+H8l+hw/iL/kfPF3/YW/9toK9I/Z/wD+RHu/+w1qH/o415v4i/5Hzxd/2Fv/AG2gr0j9n/8A5Ee7/wCw1qH/AKONKt/ulH5hV/h/ceTQf8f2tf8AYe1f/wBL569o+Bf/ACSjw/8A9cZf/Rz14vB/x/a1/wBh7V//AEvnr2j4F/8AJKPD/wD1xl/9HPRif93w3+D9IhX+H5/5neUUUVxnGFFFFABRRRQAUUUUAclpP/JU/E3/AGBNH/8AR1/XW1zOseBbXVdcl8QQ6/rem3VxbQ2s32G6WNZEiaRkyCp5Blf86r/8K9k/6H7xd/4ME/8AjdYR54acvV/izR8stbi+Df8AkavHn/Yct/8A012Vdetcpo3w+sdFkvpotf164l1K4FzcyTXx3O4jSIHKhf4I0H4VqL4X01v9ZcapJ/vapckfl5mKdNTjHbv+YScWzZj++30H9a6bwjJHHDeNI6qPMXljj+GuCj8J+H2ZvM08S8D/AFsrv6/3ia6jwd4P8J7Ltj4Z0tmEi/M1pGx+76kZrnxblybFRserfs4+INBsW+Jf23WrC33eMkYebcouR/YmljPJ9Qfyr1iT4heA422t400Pd/dXUIi35Bs15R+zLoeio3xK2aPYr5fjFFTFug2j+xdLOBxwMkn8TXukcccK7Yo1RfRRgV+Z4z/eKn+J/mfU4f8Agx9F+R4P+0LrH/CSWfg2+8D2b+Ip9B8RNqFza2bqrmBtOvbfcrOQpw9xHxnOM+lfJ37SWueLppvCB1j4Y+I9IiW8u9ktxGjrIfI+6uwnnvX6WV4J+1d8I/HfxWsvCsfgWxsrmbR7y5uLhbq7Fuu14ggwcEk5JPTtXoZPmMsFiKalK0OZN6en+RFbDQqvne58G/DnVruP4raXI/h7U/8AkC6kqr5S5bMtp6sOBj9RV740apfTeNtDb/hHdQjI0q7AEjQDP76HniQ16Zb/AAS+KHw/+LPhxvGGk6XbC+0TVxb/AGbUfP3bJbHdn5Bj7y/rXJ/HvStQsfHfh8XMcY36TeY2vn/ltB7V+jYbHUcdjFVozunJa2tsl3R49WHJW5WuhzPwZvdYX4hay1voe5jo1sCslyi4Hny85GaqfFG416T4pXrPpdlE/wDYen/KbxmwPOvMHiP68e1b/wAF43X4i61uA/5Atr/6Plqh8Vv+Sr33/YC07/0feV6FOLeZL3n8Uu38r8jH/l49On+RP8CV8QS6p4vWGPTF/f2W7zN7j/UnGMYr1aTRNauP9dNoIB/6hTOfzMo/lXnnwB/5C3jL/rvZf+iTXsdclaCdWd/5pfmzCvK0/u/I5aTwStx/x8SaUf8Ac0eH/wBm3VH/AMK30tvvXjx+0FlaRj9Is/rXW0Vj7GHYy55HKL8N9F/i1LV/+AXhi/8AQAtaWj+EdL0W6W8tbvV5JFUrtuNWuZo+f+mbyFD9ccVs05elNUoLVIfPJ9Ry/wDHuP8Ac/pW545/5JN4g/7F27/9JmrDX/j3H+5/Stzxz/ySbxB/2Lt3/wCkzV5+Y/D8ma0fiR9ZeHf+Rf0z/rzh/wDQBXwp+1h/ycHrX/YI0z+Utfdfh3/kX9M/684f/QBXyz+0J+zz8W/H3xa1Hxh4P0fSrnTrmxs7VWutSED7olbcQuxuPnxzjoa+M4cxdHBZjCtiJWir6+qa6H1FaLlBpHhXwR/4/PGf/YWg/wDSG3rznxP/AMlB8Yf9hZP/AEkt69r+Gfw18beEPEnjrw/4ksbGC/t9WtTIkN55qANYWzLhtozwR2rxvxdY3Vt8RvGUMyIHXVkzhs/8ulvX6VlOKo4jFqdJ3TcmvTU8GUXGtK/9bHefs/8A/ImX/wD2HL//ANGV5RH/AMhLXv8AsYtZ/wDThcV6z8AVZfBt+D1/ty//APRleTR/8hLXv+xi1n/04XFdmV/76/8ADL/0qJkvjkezfAn/AJJToP8Au3H/AKUSV4B4f/5Emy/7B6/+gV7/APAn/klOg/7tx/6USV4B4f8A+RJsv+wev/oFLKP4n/br/QIfHP1/zPd9N/5N3tf+xLT/ANIRXgPin/km+q/9gWb/ANEmvftN/wCTd7X/ALEtP/SEV4D4p/5Jvqv/AGBZv/RJrPLf4dX/AAf5lUfifqfRvxq/5Jb4h/69l/8ARi14ZqH+u0j/ALDuk/8ApfBXufxq/wCSW+If+vZf/Ri14ZqH+u0j/sO6T/6XwVWF/gYn/B+kiMP8Pz/yPqmiiiuM4wooooAKKKKACiiigCG9ma3s57iMAtFEzrnpkAmuI8P6n8VvEGg6br0M3hSKPUrOG8WNre5JQSIHCkiTqM12eq/8gu8/695P/QTWN8Nf+SdeFf8AsC2P/ohKxmuaoo36P9C07Ruc/wCLNa+K3hbwvrHiaSTwnOmk2FxfNEtvcguIo2faD5nGduK6z/irR30hvwlH+NZPxe/5JR4z/wCxf1D/ANJ3rraUY2m43ey/Ubfup2/rQyg3iwD/AFGkN/21lH/spqSKbxaI1/4l+kN/2+Sj/wBpGtNelPi/1a1bj5iTLt9c+MP+Ff3AOi6MU/sd+f7UlBx5B7fZ+v419E/DDUPHS/DXwkI/C2jOg0Ow2t/bUgJH2dMEj7Nx9M14fff8k7uP+wK//og19IfCz/kmPhD/ALAOn/8ApOlfAZ8rSp/P9D3cr2l8j4j/AGvr3xI/x+LXmg2kMv8AwiOljZHqBkG37ZqODkxr3zxjt71598G77W4/EnjAx6EkhLWG4C7Ubf3b+o5r6Z/aW/Z/+KvxG+LK+M/BOm6Td6c3h+y0xvtWo/Z3WaG4u5G+XY2QVuE5z1Brx3wH8NfGngPxz4z0Xxdb6XaXoXTZCsWoCRNpikx820c/hX0WT5lhf7Oo4T2n7xN3VvOT7efcMfCXLKVtNP0PEPGV7qh+Jni9n0VgxvLTcouEOP8AQbfv3/8Ar12nwC1LVItD8RiPw7czA+IJSSk8Iwfs1vx8zD/JrmfH01vZ/FTxlHcX1kp+2WnIuFIP+gW3Q10/wE8R+H7PRfEkd1rmnxu3iCVgrXKZI+zW4yBnJHB/Kvp6k4vA0vf+0+397yPOqJ+z27Hm91qF9/wkXiQnQbvJ1y+JAkh+U+aePv16t8B9XvofhnZovhnU5QNS1Y70e3wc6jcnHMoPHTp2ryq61zST4j8SMt4rhtcvmUoC2QZTg8CvVfgP4j02H4Z2cTLfOw1LVj+60+4kHOo3JHKoR3p15R+rUPf+y+3kKsn7PbqvyZ43oupTLYkf2Pff8fFx0Ef/AD2f/br2f4ca3JH8DfD0P9haowXwzbrvWJCp/wBGHI+bOK8Y0XVofsJC2d83+kXHS1cf8tn9QK9n+HOtTL8DfD0Meg6pLt8M2671jjCn/RhyCzjiljZfuMP732H+UR1lpt1PBJtT/wCLdPGdPvR/xJSu7yeP9R169K9+8fa/E/wT1yH+zNUUt4bmXc1m+0f6Oec4xj3rwGa+vG+HTqui3QX+xSNzPEB/qOvDk/pXv3j7UNbf4J66n/CP7Iz4bmBd7tOB9nPOBmpzST9nHX7HYdVe9H1PEvEWrwNpmPst8P8ASLbraSf89k/2a+p/+Eo03+K11Yf9wm6/+N18seIptZbS+dOtFH2i263bZ/1ydhHX1Pv8WN/y76RH/wBtpX/9kFb5pKTxP/bq6PuzKulZfP8AQP8AhKdJ7rqI/wB7TLkfzjo/4SrRe8tyP96ymH80o8rxY3/L9pEf/brK/wD7UFH2PxQ339esF/656cw/9ClNefef9f8ADnNaP9f8MH/CWaD/ABXrL/vQSD+a0f8ACWeHe+qxD/eDD+Yo/svXW+/4nkX/AK52kQ/9CBo/sTUm/wBZ4s1U+yx2yj9Is/rRef8AX/DhaP8AX/DB/wAJd4Z765Zj/elA/nR/wl3hXv4k0wf710g/maP+EfZv9Zr+rv8A9vCr/wCgqKP+EZsm/wBZf6u//cTuF/8AQXFH7zyD3Ry+LPCzfd8S6UfpeR/41IviTw633de04/S6j/xqA+EtDb/WQ3Mv/XS9nf8A9Cc0z/hCvCbf6zQLOT/rpHv/APQs0fvPIPdLZ8Q6Av3tc08f9vKf41Ys9QsdQRpNPvbe5RTtZoZFcA+hINZq+CfBq/d8JaMD6/YIv/ia0bHTNN0uNodM0+2tI2bcywQrGCfUhQOaqPP9qwny9CzTl6U2nL0qwQ+L/Vj8f512ui/8i9bf9e/9K4qL/Vj8f512ui/8i9bf9e/9K8/GbI0ge0/s9/8AJAvhp/2J+jf+kUVegV5/+z3/AMkC+Gn/AGJ+jf8ApFFXf9Otflh9gfP3xT8H/Eo/F7UfFfhj4f3Wv6ZqGgaZYrNb6hZwGOa3nvXdWWeVG+7cx4IGOtfG/wAYbPxdb/GLxDHr3g260m7+y2GbaW8tpWC+U2DuikZefrX6itdWsf8ArLiJfq4FfH37QHwM+JHjb4vax4y8KR+Hp9NvbWzhRrvWUt33RR4b5drcZOOcdK+n4czdYHFU/rErU436d0+2vU46+FjNuaXvM8O+AK3CxeMhNbNG/wDb6ZUspx/xL7P0OK8/18N/wnHi3jH/ABN2/wDRMVeyfDLwjrng/WfHWheJLjRbe+t9ehaRYdTSSPDaZZMMPgZ4I7dcjtXjPia6s7fx54tjl1Gxz/a7HK3KkH9zF0Pevv8AKsZRxGLVSErpuT+9s8dwcasl/XQ9N/Z//wCRDn/7DWpf+lL15Ha/8fOq/wDYa1T/ANLZq9N+BPiDQLXwPPHda5p0Tf2xqJ2vdIDg3D46mvJLfXtDFzqv/E4sudY1Nh/pC8g3kxB69xXTlVSKxe/2ZfnEiMXzy9T3n4G/8kn8Of8AXq3/AKMau6rzH4J+KPDtv8LPDsM2tWiyLbNuXzRkfvGrt/8AhLPDv8OqxN/ugn+Qrzqc48q1OWrF8706mvRWO3i3w+qlvtzEDuIJD/Jaoz/EnwTattn1xEb+75MmT+G3NN1YLdonkk+h01K3b/eX+YrF0XxfofiC5a10qW7kdIzIWksLiKPAIHDugUnkcA56+hrabt/vL/MVSkpK8XcLNbl7T/8AkJWX/Xwn867CP/kpPw1/7Gdv/TbfVx+n/wDISsv+vhP512Ef/JSfhr/2M7f+m2+rwc7/AIE/Q7MF/Gj6n1JRRRX54fThRRRQAUUUUAFFFFAHiHxU+F/xQ1r4nHxt4Hs/C95aT6Da6VLHq2rXFnIkkNxcyllEVrMGUidRyQcqeK+Nfjx4b+IGj/GTUbXxVpvh63vDounOq6fqs9zHsMlzgl5LaI5yDxt9Oa/Tmvmb49/sw+Pfil8S5fHHhnxJoFlbTaZa2LQ3yTM+6JpW3DYMYPm/pX0PD+b/AFDF05V5Wpxv0vun5X3Zy1sNCd5pe8z5d+A8N3HqHjFbhIQ/2614SQsP+PZO5UVxHi5W/wCFleNM4z/adv3/AOodaV7x4G+D/irwD428ceG9b1bSrq7gurGRpLVZBGQ1ojDG7noa8U8cabcWfxS8b28skbMmqW2Sucf8g2zNfomU42li8XGpTd03J/meNKHLWkn2/wAjsv2e/wDkVdY/7D93/KOvUK8x/Z9Qr4W1leONfu/5R16ftqZfFL1f5nFWX7xiVyS/8lZf/sXV/wDSlq67bXM674Lu9U15PEWmeLNS0W6Wz+xN9khtpBJHvL8iaJ8HJ7YrKqm0mlezJh5nS1yWhf8AJQ/GH/Xppn/oE1L/AMIb4s/6Kz4g/wDAHTf/AJGpNL8B32l32o6tN461y7utRjhSaR4bNMiIMFACQAD756VMnKUo+69H5dn5lRSinqdlL/qz+FdN4+/5AVt/2GdI/wDThb1wUnh0tGfO17V5On/LyE/9AArpPHXhPS10O3aS51WYnWNJH7zVblhzqFuD8pkx39K8rNm/Yy0+y/yN8Nb2kfVH2jUU11a2o3XNzFEP9twv86wv+Fe+DW/12hxXH/Xw7zf+hk1LD4D8D2x3W/g3RIz/AHl0+IH89tfnB9STXHjDwjaZ+1eKdIhx/wA9L6Jf5tXBfGLVfDvj74Z6/wCEfDXi7QZNR1K3Edu0l4Wh3h1b5mhWRgPl6hW+lek2+k6VaY+y6ZaQ4/55wqv8hVumnYNz4F/aMtviZF8IdWm1XRfC32JbzTDLJp+oapcSAf2hb42htNjQ846uvtk4B+cJr3UP7Z8NtJpMrRr4g00nbHKCf9ITgB0XP51+pPx5+HWqfFf4V6x4D0XULWyvdQlspYp7oMYlMF3DOQ23nkREcdyK+OviF+yp8S/AdroPiTWvFHhm5tLfxJpKtHax3AkJa6jUY3DHU19tkmfRpYerSxVT3p6LT/I8+rhIwj+7Wh518fLg3Hh7RM+D7pf+J5D80iwDd+5m45fP6dq838N6fHP8SfBqN4Ps33ahdDy5jEA//Evujg4B6Yz+Ar3j9o7w9fWPhXQppriBl/4SC3XCg5/1M/rXlHheFk+KHgclh/yErv8A9Nt3X2GG5auCrST+0ui/u+R5UNKfyZ7D/wAI5cN/qfCOjW49V1GVSPwSIfzo/wCEV1dv9XLBa/8AXPUL04/KRa67bRtrm9lE4uaRyP8AwiPiT+HxlLCPSNJmx+MkzZ/KuT+JvgvVLzRtMsNW8aaheWl1rmnQSwSWlqyMrXCg5Dxtnr0OR6g161trjfihNBZ6TpF1dTxwwQ6/pkkkkjBVRRcKSzE8AAckmsq1KHs5f5sunKXMiVfhH8Lf+id+Hf8AwWxf/E1z+ufDvwHo/i7wW2k+D9IsWn1ieOR7a0SJmX+zbttu5QDjIB+oHpXXj4geAh/zPGgf+DKH/wCKrm/EHi/wnqXjDwQmneKNIumj1m4dxDexOVX+zbwZOG4GSB+IqKsaHKuVLddu6Ki6nW/X8j1bwj4VsVtLtrO/1W0IuePJ1CUqP3afwMxX9K9N/Zr0XxIuheL203xjMoXxZdrtu7KKZWPkW/J2BG/XtXDeCbu1uLO78i6ikzc/wOD/AMs09K9W/Zj/AOQD4y/7G+8/9J7avleIUlT0/m/zPSytv2jv2PQf+Lh2v/Qu6lj/AK72Wf8A0divLPjh4f8Ai94suPC2qeFfAOnXVzoF5cTTRTa4sUTpLA0XyuIi5ILZxs5r3aivloTlTkpx3R7MoqcXGWzPzS/aah+JGm+IvBbeOPCul6Tut9VEItry8uNxza7tzNZxqMcfdLdeccZ4j4UanbL8Wo2uNQ01M+HbtQFuuc/abXghlBB4/Q193/tM/AXxZ8aLzwrfeFdc0nT30Bb9JhqCyESfaPs+NuwdvJOc+or5xb9nbxh8O/i5plr4s1fw9qS6h4b1BoltYpSq7LqzB3CQf7Q6e9feZRntOWB+q1p/vHK9rea6rToeZisNGnBuK0SPKvjF83xKs2UqQdCXBVsg/wCkSVZ+BH/I8+MP+wVo3/o7UKg+OHgfT9K+J1pCtlZw+ZoSyf6KhhyftDjJ2454qD4I6C3/AAnHi6O21jUbUrpejsGjmEhOZb/r5obOMfqa+rhUc8vi7acz/U86S/cv0/VFX4jf8lS13/r1sf8A0B66n9n37njH/sNRf+kNtXDfEOz1i3+J2tousJOwtbLLXFspJ+R/7hUD8q6f4BzeIoU8XeTp9jdD+2Yt/wDpLRNn7Fb9AUYHjHUirqT/ANgpXT+J/wDt5M1+7+S/Q5nxF/yPni7/ALC3/ttBXpH7P/8AyI93/wBhrUP/AEca8n8QaleL458Vtc6LdoTquW8tkkCn7PDxw2T+XevRfgL4k0m18F3Ud5LNbE6zftma3kReZj/EV2/rSrTj9Uo/MKqfs/uPOYP+P7Wv+w9q/wD6Xz17R8C/+SUeH/8ArjL/AOjnrw6x1HT7q91j7PfW8u7XdWZdkinIN9OQeD3Br3H4F/8AJKPD/wD1xl/9HPV4hp4bDW/k/SIsR8Pz/wAzvKKKK4zjCiiigAooooAKKKKACiiigApy02nLQCHR/fb6D+tdR4P/ANXef9dF/wDQa5eP77fQf1rqPB/+rvP+ui/+g1x4v4DSO56d+zP974mf9jmn/pk0qvaa8W/Zn+98TP8Asc0/9MmlV7TX5jjP95qf4n+Z9Xh/4MfRfkFFFFcxseQ/Gz4c/EDxd4o8K+JvAlv4fuW0Sz1OzuYNW1KezB+0taMjI0VvNux9mYEEL94c18f/ALTXhP4m6J498Mr4v0nwxbNLpF6YP7N1m4ugwE0Gd3mWkW3tjGfwr9Hq8A/aS/Z78ZfGTxHoGueFde0bTxpFlc2kq6gsp3+bJG2V2DjHl9z3r28kzR4HFU3Ulamnd6f0zmrYaFS87e8fGXwct76L4ja0t1HArHRLXHlyFhjz5fVRWZ8Vlb/hbF9ux/yAdO7/APTe8r2LSPgX4y+Gvxcv9L8Q65ot5NdeHLW4jaySUKF+1Trg7xnOQa8t+Mmk3Nh8Xr2GaaJmOgaa2VzjHn3vrX6PluYUcdjYVaTunKXT+7I8apT5K0ovt/kWfgD/AMhbxl/13sv/AESa9jrx/wCAsbJrHjIEg/v7H/0Sa9h21pW/iz/xS/NnFXX7x/L8hK8/0L/hPPFCajqEHjeOwhh1bULKKAaXHJsjgupIl+YkEnagr0HbXJfDNf8AiTar/wBjFrP/AKXzVzTXNNRfn5diY6RbE/4Rz4gf9FJT/wAEsP8A8VUPgPUvGmteENL1y61DTbyW8h811ktmhOSx43IxGP8AgFdptrk/hL/yTfQP+vQf+hGp5OWokm9n1fkNO8Xc2F1TXbe3H2zw08g2ctZ3Ucg6eknln9K2vG3ivSx8K9fhu4b+zkbw/dKPtNlKik/ZmH39uw/99Uxf+Pcf7n9K3PHP/JJvEH/Yu3f/AKTNXDmCajv0ZpSa5kfUngzXtD1jw/po0nWrG9Is4ci3uEkI+QddpNb9c3p/hjw3rWgaY2raDp9432OH5p7ZHYHYOQSMg0v/AAgukwc6Xfavpp7C11KbYPpG7NH/AOO1+ZH1h5F4v+E3xgf4keK/FHhLT/B17pniC4tbmL+0dcurSeMxWcMDKyR2cq/eiJBD9COBXxV8Q9C8aab8VfG9l4gsdFhv4tWj85LPUJZ4QTZ2xG13gRm4I6qOc/Wv0y/sXxhaf8g/xotyB0XU9Ojlz7ZhMX54P418q/FH9lL45eKfiJ4j8baXqXg+W21y7S6WHzrhZk2wRRY2soXnys/fPWvqOHM6WAxUXiZ2ppPpf8lc5K2FhK8orVnkfwDjuF8H6gsyxhxrl/na5I/1nrgV5HGrf2lr3T/kYtZ/9OFxXunwt8N6/wCD9P17w/4is547qx8Q6hDPJBZyTx7hJzjyi5xXhEd5p/8AbGv2/wDadt5g8Raz8rNsY/8AEwnwdrYI/EV9/keMo18VzRlo4yf3uJ4zg41J37ntHwJ/5JToP+7cf+lEleAeH/8AkSbL/sHr/wCgV9AfAlf+LU6FyD8tx/6USV8/+H/+RJsv+wev/oFdWUfxP+3X+hEPjn6/5nu+m/8AJu9r/wBiWn/pCK8B8U/8k31X/sCzf+iTXv2m/wDJu9r/ANiWn/pCK8B8U/8AJN9V/wCwLN/6JNZ5b/Dq/wCD/MdH4n6n0b8av+SW+If+vZf/AEYteGah/rtI/wCw7pP/AKXwV7n8av8AklviH/r2X/0YteGah/rtI/7Duk/+l8FVhf4GJ/wfpIjD/D8/8j6pooorjOMKKKKACiiigAooooAiuoftVrNbbtvmxtHuxnGRjNcZpPgrxxomlWWjWHxGjW2sLeO1hDaLGSERQq5O/k4AruKKzlTjN3f5tDUmjgvEHgPxv4k0LUfD2ofEiP7LqlpLZzbNFjDeXIhRsHfwcE1039la233/ABRcL/1ztYR/6EprXopKlGLvr97G5t6GUuh37D954r1Zvotuv8ogafF4d3Rr5muau/8A29bf/QQK1F6U+L/VrTcIjUmXb7wrp/8Awr+4kkvtYcjR3bB1a5A/1B/hEgB+mK+ifhh4D8MzfDXwlJcWl1Mz6HYM3m39w4ybdOxcgV4fff8AJO7j/sCv/wCiDX0h8LP+SY+EP+wDp/8A6TpXwGfJKVO3n+h7uVu6l8ib/hXfgZv9Z4V06b/rtCJP/Qs14l43/Z98XN8R9Z8UeBPBXw7n0rVLazjjj1C9lspYXhRlbCRWUqkHcDncOnSvo+ivEo1p0J89N2Z6VSnGrHllsflT8TvCPijQ/jF4103XND8OWl9Dd2XmRafeyTQKDp9sRtdreMnggn5ByT16npP2f4LiHRfE0cscKsPEU2Qjkj/j2tu+B/KvoX4wfsm/ETx78VPEnjzw74q8OWtlrklrIkF7HOZYzFaQwHOwY5MRP0IrzP4Z/CvxJ4NvPGfhvVtU0y4u7LxJIsklusgjYm0tW43c9D3r9FwGd4fEYSjhua9SOr09fK3U8jG0PZwbS00Pni8Vv+El8T9P+Q9ff+jTXrP7P/8AyS+y/wCwlrH/AKcrmvMdTsJrfxZ4qgkkQsniC/UkZx/rjXp/wBUj4X2Y/wConrH/AKcrmvpK0lLC4e38v+Rw11+7+a/Jniuh/wDHgf8Ar4uP/Rz17Z8Nf+SD+HP+xXt//SYV4pof/Hgf+vi4/wDRz17X8Nf+SD+HP+xXt/8A0mFGN/gYf/A/yiFfb5nz9N/yTeT/ALAZ/wDSevoX4g/8kN17/sWZ/wD0mNfPU3/JN5P+wGf/AEnr6F+IP/JDde/7Fmf/ANJjU5r/AA4/4B1fij6/5HhfiT/kF/8Abxbf+j0r6xr5O8Sf8gv/ALeLb/0elfWNdGbf7z/26vzkZYjZfP8AQKKKK845gooooAKKKKAOQ+JRuH07SLOC/vLRb3WrO1mktLh4JDG7EModCGGfrTv+Fa6Z/wBDL4t/8KK8/wDjlJ8Rf9T4d/7GLT//AEM111YckZ1JcyvsaczjFWPONU8LxaH4s8KW9r4g8SyxahfXEVxHPrt26uq2c7gYMmPvKp/AV2TeG9Pbrcar+GrXQ/8AalY/i3/kcvA//YSu/wD0guK6O61XS7HP23UrW3x182ZV/maVOEE5aaX/AEQSlJ2/rqUv+EW0v+KbU2/3tVuj/OSnL4V0XHzR3bf719Of5vTf+Es8PN/x76kt1/16xvPn/v2DmnL4iEg/0XQ9Xn/7dfK/9GlKv935CXMPi8J6DsG6zduv3riQ9/dq7LR/BvhhvD9uzaPCxMH8RY9vc1xsWpeIJUH2fwz5fX/j6vETv/0zD12Wj/8ACZTeH7fa2i2i+R3WW4PT6x1wYxRsrL8DWHN3PZPgD4B8FXPwJ+HFxc+F9Nmkl8JaO7tJbqxZjZxEk5HrXe/8K5+H/fwPoDH/AGtNhP8ANa4L4A6J4ouvgT8OGfxrNaxN4S0cotnYQqyr9jiwMyiTJA74/Cu9/wCELjm/5CHibxFd+v8AxMWt8/8AgOI/0r8wPrSVfAfgaP7ngzQlx6adCP8A2WqF5F8KtHz9vi8KWRHaVbaP+eKtf8K98Gt/x9aFFfH/AKfne6z9fNLZrUsdD0XS8f2bo9jaY6eRbpHj/vkCgD5c8UeC9e/4WH4s8ReBdF8E61pPiC+try13T36zRbLG2t2QpbadOn34GYEPyGGQDmvj/wAZ2fiq0+I3i+21HwbZx3i6ufMitp38tP3EWADPDE3TnlB16V+uNfI/xK/ZD+JXi/4jeJfGGieKvDNvZ65f/bI4bpLhpIx5aJglRj+DPHrX03DucLA4lPEztBJ9L/oclXCxleUVqz57+BTeIl8FXCW/h2xBGsajuaa+2gH7Q+R8sbZxXkttHrz3Oq/vrCD/AInOp5AjeTB+2TZwcr39q+n/AIU/DfXvDej6zoGoajp8tzp/iPVraaSFX2My3cgJXPOOO9fPEdnLDfazEzoSmuaqpx7X01foGRVqeIxClGTacW+3WJ41rVJrzPTfgnpeq3Hws8Os3iS6gQ2zYS3ghGP3jd3VjXb/APCNW8n/AB9anqtx/vX0kYP4RlRXO/A9SPhR4cHpbN/6Meu621z04R5EcdRvnfqZC+E/DYYNJo1tOw/iuE80/m+TWhb2dnaLttbWGEekcYX+VT7aNtWopbIzd2JSt2/3l/mKNtDdv95f5imNF7T/APkJWX/Xwn867CP/AJKT8Nf+xnb/ANNt9XH6f/yErL/r4T+ddhH/AMlJ+Gv/AGM7f+m2+rwM7/gT9DswX8aPqfUlFFFfnh9Oc7/wsLwcP9ZrSRf9dYpI/wD0JRQPiJ4B6N400SMntJfRof8Ax4ij7D8Qv+ho8Pf+CGb/AOS6T+z/AB+3DeKtBx/2A5f/AJKoAtQ+M/B9x/qPFejyZ/uX0R/k1XYda0e4/wBRq1nJn+5Op/ka5+Xw34suP+PjW/Dkmf73h5j/ADuapy/D/Ubj/j4n8Jyf73hhT/OagDtldJF3RsGHqDmnV543wojkO5ofCAb+8vhaNT+fm5pP+FTv/wAs9Q0iL/rjpDR/+gz0AeiUV53/AMKp1D/ln4sli/64rcx/+g3NKPhdri/6v4jazH9Lm7b/ANCuDQBy3jH4H+PNW8f694y8LeOtB0+31z7Kz2uoaHNdPG0MCxcOl1EMHbnG38a+IPil4R8UaD8ZPHulazr2l3t5Bqlp5k9rp8kEb50yyYYRpnK4BA5Y5IJ4ziv0KHw28WL/AKv4sa4n/AA//obGvCvHv7C/irxp441rxrH+0RqFnJrc0M80Unhy3uGDR28UA+cyKD8sK/wj8etfRZBnP9m4qNSu24JPRHNVw0Z3lFas8J+AVvPD4Z1qOSaNmGv3eSqEA/LH2ya9M8uT++v/AHz/APXrkvAvwK8YeFLnxV4bh+MF1N/Z3iK6gab+xLZRMQsZ37STtznpnHFem2vgm6htoobjXjPKkarJKbUKZGA5bAbAyecCvsKOYU68faJOz1+/5nz2Ip8tSSOf8uT++v8A3z/9ejy5P76/98//AF66X/hDZP8AoLf+QP8A7Kj/AIQ2T/oLf+QP/sq2+t0zDlZzXlyf31/75/8Ar0NDIwK715/2f/r10v8Awhsn/QW/8gf/AGVH/CGyf9Bb/wAgf/ZUfW6YcrOcm/1Z/Cum8ff8gK2/7DOkf+nC3qNvBkjDa2q8f9cP/sqk8ff8gK2/7DOkf+nC3rzMyqRqUZuP8r/I3w6tUj6o+uKKKK/Oj6oKKKKACuI+MHgDUviR4Rj8P6PrNtpd3BqVnqMVzc2rXEYa3mWUK0auhYEqBww6129FNNxd0Jq6sz4W/av+FfxI8N+BtB1HX/G3hrULU+JLaPybPQbi2k3GC4wd73cgxweNvfrXgHh7T763+JvgZ57qB1Op3YwkJX/mG3fqxr9H/j18HX+NnhGy8Lx+Jf7Dey1SLUlufsf2ncUjlTZs3pj/AFuc5/h6c18ueOP2V9Q+F/iz4e69cfEoawtxr1zaeT/Ywt9pOlXzbtwmbP3MYx3r7bJM/p0sLLC4iTc5yVtP8P8AkeficNGMG4KySZc8uT++v/fP/wBejy5P76/98/8A166X/hDZP+gt/wCQP/sqP+ENk/6C3/kD/wCyr6H63TPn+VnNeXJ/fX/vn/69RXOnw3kYivIYJ0B3BZIgwB9cGuq/4Q2T/oLf+QP/ALKj/hDZP+gt/wCQP/sqPrVMOVnGf8I5o/8A0CNO/wDAVadF4f0WNvM/sew3DkEWyDHGPT0Ndj/whsn/AEFv/IH/ANlR/wAIbJ/0Fv8AyB/9lU/WKQ7SKPhXwt4ZurO7+1eHdMm/0n/lpZxt/wAs09RXpH7NfgbwncaF4vZtEgQp4su0UwlotqiC34Gwj1Nc1ouk/wBkW8sJuPOMsnmFtm3HygYxk+lehfsx/wDIB8Zf9jfef+k9tXyvEFnTUl/N/merlbftH6HoX/CB6Cv+ouNat/8Arjrd6g/IS4/Sj/hDdn/Ht4q8RQ/9v3mf+jFauior5M9s53/hGdej/wBR8Qdb/wB2a3snH6QA/rXmvxK+CfxK8YeKtJ8VaD8UNJs59M0+508rqXh9rkSJNJC5OIp4cEGBfXqa9soq4TlTkpRdmiZRU1yy2PzS/aa+H/xL8K/FbTbXxB4u8M6pPL4eWSOSz0W4tEVPtMgwVe5lJOc8gj6Vy3wZh8WWnjrxaqw6TcyHSdHLfvpIQF87UMY+V+ev6V9w/Hb9mO4+M/jCw8XWvj7+wXstNGneT/ZQut4ErybtxlTH3wMY7dea8I0v4C3nwv8AjB4n8P3HjUaw0/hvQ7zz/wCzRb7Q1zqibNokbONmc579OK+7yrPKM8JTwc5S9pdt9up5mMw/JTlKK00/NHzt8RLjXF+J2tm40mDf9lssrDdbgPkfHLKua6X4CapqFuni7/inb+bdrMRYwyQHb/oVvwd0gJ9eM9aj+LGktYfFvXbdrrzMWdgd2zH8D+9bPwBj2/8ACYruzjWov/SG2r6xvny+k1J/E+39886p/D+S/Q808Qasf+E58WNJpd/Hu1XO0w7iv+jw8HaTXovwF8Radb+CrqO4jv0J1m/bP9nzleZj/EEx+tcV4kGPHni7/sLD/wBJoK9I/Z//AORHu/8AsNah/wCjjVVlL6pR17k1bez+48R+3+Hbm81n7Y1qwbXNWb9/Hjg305H3h6GvWvglF4Jk+GOhY1W2t7jypNwt9SaBgfNfqEcfrXnUH/H9rX/Ye1f/ANL569k+CNtb3Hwn8P8An28cn7mX7yA/8tn9aWJg/q+Gbt8HbyiOs7R+f+Z0cOm7v+QZ4uvh6L5sU4P/AH2pb9am+y+KYf8AV6tp9wP7s1myMf8AgSvj/wAdqabw34duP9foOnSf79rGf5iof+ES8Nj/AFej28X/AFxHl/8AoOK4uV/02cd0H23xND/rtDtJx6217yf+Auigf99Uf8JBJF/x+eH9Wt/cQrMP/ITOaP8AhFtKX/VyajF/1z1K4UfkHxR/wjqr/qdb1eP/ALei/wD6GDRaa/r/AIAe6H/CWeHl4uNSW1Ppdo1v/wCjAtaFrfWV6u6zvIJ19YpAw/Ss/wDsXUl/1fivUsf3ZIrZh/6KB/Ws+58GyXTb5rnTZ27NcaTGzD8VKn8qOaa6f194Wj3Onorkf+ER1qH/AI9NXgi9BCbqFf8Avnz2X9KP7L+IVv8A8eutWs3otxINv6Q7v1o9pJbxHyrozrqK5Nbv4m2/+u0fQ73H/PK5kiJ/Fgf5VJH4k8YRttvfhzet72eo2so/8iPGaPars/uYuRnUU5ajidpIkkeF4mZQxjbG5SexwSMj2JFSLWpKHR/fb6D+tdR4P/1d5/10X/0GuXj++30H9a6jwf8A6u8/66L/AOg1x4v4DSO56d+zP974mf8AY5p/6ZNKr2mvFv2Z/vfEz/sc0/8ATJpVe01+Y4z/AHmp/if5n1eH/gx9F+QUUUVzGwUUUUAeRfE74O+MPF3jyHxt4T8YaPpTDSI9Lmg1DSJbwMEmklDqY7iLb/rMYOelfF37Q/gbxl4Z+NV1YeIPE2jahcv4b0yVZbPSpbZAhuL4BSrzyEnIPO7uOOOf0urwH43fsr3Hxf8AHy+OrP4iHQn/ALKt9Le2Oki6DCGWeQOGMqYz55GMfwivdyLNf7OxlOpWk/ZxvovNNfmznrYeNS8ktWfIHwLtbmDXPGUc08Tt51icrGVH+pPYk1675cn99f8Avn/69U/DPwRuvhv8RfGvhmfxgNVZP7Nm+0f2eIM7oGONgkbp65rsf+ENk/6C3/kD/wCyr7enmVHEp1oXtJt/iz57FU3Gq1/WxzXlyf31/wC+f/r1x6fDSS2mum03x14jsIru7nvGt7eS3EaSTSNI+3dETjc56k16r/whsn/QW/8AIH/2VH/CGyf9Bb/yB/8AZU5V6U9zBc0djy3/AIV9qn/RTPFf/f22/wDjNWdE8E3Xh3SbbR9J8WakLa0Ty41mit34znkiMHv616T/AMIbJ/0Fv/IH/wBlR/whsn/QW/8AIH/2VJVaKd1f8R3kzhTY+KIYSsWvWMoC4/fae2T+Kyrj8q2vGzeMI/hXr4kh0eeP/hH7rcVlliOPszdBtfn8a3z4NkII/tXr/wBMP/sqb8Qofs/wv8S2+7d5Wg3ibsYzi3cVyYycakPdvszSlpJXPozw/rPjCHQdN8/wXHMBZw82mpxvn5B/z0WOtD/hLb6P/j88D+IYPcR28w/8hSsf0rR8O/8AIv6Z/wBecP8A6AK0a/Nj6s53/hPNDj/4+rXWrU/9N9Gu1Uf8C8vb+tKvxC8DswSTxZpcDnotxcrCx/ByDXQ01lWRSkihlPUEZBoA+em+DPjC68Qa9qXg/wCLHg82Wt6tc6okE+iy3UsRmbcUMkd4gbHrtFfDereF9YtvEXirTdU1LTbua38U67DM6WLLHI66lcBmVGkYqCQSAScep61+qt54R8Kahn7f4Y0m5z186yjfP5rXyxr3/BPmy1TxFrWtaX8Txplvq2q3upx2sWhf8e4uLh5vLDLcLkL5m0HA4A4r6fh3PFluIc8Q248rSXzX+Ry1cNGWsVqeG/BLwnpcnww0WXyfImIuN0lrJJASftEnPyMP1rwPQdOul8F2b2+r3KA2AOx1R1+57jd+tfVfwn+D/wDZ/gOwsU8XanvtpruEyJI4VtlzKu4IzsFzjOK+XNB0e8XwXaNHrt0B9gB2tHEy/c/3c/rX3mR1oVpc0Y/Y6advQ8eKtOfr/mez6f8A8JND+z/bbW0y6gPg5OCJIHVfsQ7/ADhiB9M+1eEeJ768X4dapHcaTOoOjTDzI3R1H7k9eQ36V7zp9n4iT9n+2ePWLJoT4OQ+XJYtuC/YhwGWQDOO+DXg3idtaX4dapvjsnT+xpskO6kDyT2wa1y66p1d/g9e5NH4n6n0L8ZPE2jyfDHX4ZJpbaRrdQEureSAk+YvTeoB/CvHbq4guJNIe3mjkX+3dI5RgR/x/wAHpXsXxmvte/4Vj4gS68PoFNuuWhvFcD94v95VNeEaoljJcaXJc+GZ43/trS8uIoy2Pt0OQCjE8jiqws5KhiP8PZrpIigvd+f+R9hUVyPnaPb/APHvqfiXTcf34bh1H/f5HX8qVfEHktth8caNMe0d9EIpD+Kuv/oFcftUcfIdbRWBb6/qj/8AMLs70eun6gkhP4SBAPzqx/wk1nF/x/WOpWZ/6a2bso+roGUfnVc8RcrNeiqNnrui6g2yx1a0nfpsSZSw+ozkVeqk09hNWCiiimAUUUUAFFFFADl6U+L/AFa0xelPi/1a1LKOmvv+Sd3H/YFf/wBEGvpD4Wf8kx8If9gHT/8A0nSvm++/5J3cf9gV/wD0Qa+kPhZ/yTHwh/2AdP8A/SdK/P8AP/ip/P8AQ93K9pfI6iiiivnj1grwrXPgP8RJvF3iPxB4b8feHLO01/Uf7R+zX2gz3MkTeTFFt8xLuMEYiB+7xk9a91orSlWqUJc1N2ZE6cai5ZK6Pyg8S+GfEOl+OvGOn6jrOnXN1b+I9QjmmhsXijdhMwJVDKxUexY/Wu9+AkM0fwztI2kQsuqawCQpAJ/tO596998WfsS33iTxfr3im1+LQsU1zVLnUjbf2CJfKM0hfbvNwN2M4zgZx0Feb/Cf4bzeH/CdzoL+IPtLad4g160M32TZ5pj1a7Xdt3nbnGcZOM1+jYLPcPi6NHDxb5oR109Dx8fQ9nC67/5ny7oan7Aef+Xi4/8ARz17X8Nf+SD+HP8AsV7f/wBJhXj2j2ZjtHj87O26uRnb/wBNnr2P4ar/AMWH8Oc/8yvb/wDpMK+jxjvh8P8A4H+UTjrrT5nz5N/yTeT/ALAZ/wDSevoX4g/8kN17/sWZ/wD0mNfPU3/JN5P+wGf/AEnr6F+IP/JDde/7Fmf/ANJjSzX+HH/AFX4o+v8AkeF+JP8AkF/9vFt/6PSvrGvk7xJ/yC/+3i2/9HpX1jXRm3+8/wDbq/ORliNl8/0CiiivOOYKKKKACiiigDP1zw/o/iSzXT9bslurdZBKI2ZlG4AgH5SPU1hf8Kn+Hv8A0LMH/f2T/wCKrraKzlShN3lFManJbM5W3+Fvw/tbqG8h8M2vmwMWjZmdtpKlTwxI6MR+NbtroujWOPsek2Vvj/nlbov8hV2inGnCHwpIHKT3YU5elNpy9KsEPi/1Y/H+ddrov/IvW3/Xv/SuKi/1Y/H+ddrov/IvW3/Xv/SvPxmyNIHtP7Pf/JAvhp/2J+jf+kUVegV5/wDs9/8AJAvhp/2J+jf+kUVegV+WH2AUUUUAFFFFAHgNx+z/APEq11rXL3w/8RPDUFlq+sXuqxw3nh24nli+0TNIULpeIGxuxnaK+Errw7rthrXiCxvNWsJp7fxBq8Uskdm6I7rfzgsqmQlQSOAScepr9a6+Udb/AGGb7VNf1jWbX4v/AGWLVdTvNSEDeH1k8o3E7zFN32gbsFyM4HSvqeG88jluIc8VJ8vLZW16r/I5KuFjLWK1Z4r8EIZV+FPh0NIpItm/h/6aP713Hlyf31/75/8Ar1T+EHgOax+HOjWLa15ht0lh3/ZsbtszjON3GcV2P/CGyf8AQW/8gf8A2VfV0cZTlTi/JHzlWL9pL1Oa8uT++v8A3z/9ejy5P76/98//AF66X/hDZP8AoLf+QP8A7Kj/AIQ2T/oLf+QP/sq0+t0yOVnNeXJ/fX/vn/69HlOcZdcAg/d/+vXS/wDCGyf9Bb/yB/8AZUf8IbJ/0Fv/ACB/9lR9bphysxtP/wCQlZf9fCfzrsI/+Sk/DX/sZ2/9Nt9WZa+E2t7qG5bUt/kyCTb5OM4991acf/JSfhr/ANjO3/ptvq8fOKkamHm49jqwatWj6n1JRRRX5+fThRRRQAUUUUAFFFFABRRRQAUUUUAeMap+zpeXniDWdc0v4paxpS61qEuoS2sOn2kiJI+AcGRGboqjr2qD/hnLxB/0WvX/APwVaf8A/Ga9uoroji8RBcsZtJeZk6FKTu4r7jxH/hnLxB/0WvX/APwVaf8A/GaP+GcvEH/Ra9f/APBVp/8A8Zr26iq+u4n/AJ+P72L6tR/lX3HiP/DOXiD/AKLXr/8A4KtP/wDjNH/DOXiD/otev/8Agq0//wCM17dRR9dxP/Px/ew+rUf5V9x4j/wzl4g/6LXr/wD4KtP/APjNRTfszahemBNT+Lut3lvBdW90YJNNslWR4ZVlQMUjVsbkXOCK9zopPGYiS5XN29QWHpJ3UV9wUUUVzGwUUUUAFFFFABXDfFX4Xr8TrTRYV8S3uh3OhakdStrm1hilYubea3KlZVZSCk79s5xXc0U4ycXzR3QmlJWZ4j/wzl4g/wCi16//AOCrT/8A4zR/wzl4g/6LXr//AIKtP/8AjNe3UV0/XcT/AM/H97Mvq1H+VfceI/8ADOXiD/otev8A/gq0/wD+M0f8M5eIP+i16/8A+CrT/wD4zXt1FH13E/8APx/ew+rUf5V9x4j/AMM5eIP+i16//wCCrT//AIzR/wAM5eIP+i16/wD+CrT/AP4zXt1FH13E/wDPx/ew+rUf5V9x4j/wzl4g/wCi16//AOCrT/8A4zXdfCv4bR/DHRdQ0ldfu9Yl1LUpdTmurmKONzI6RoRtjAUD92Og712lFZ1MRWrLlqSbXmyoUqdN3jFIKKKKxNAooooAK8r8ffA2Txp42l8cab4/1XQbq40u10qeG2tLaaOSO3luJI2/eoxDZupAccYAr1SiqhOVOXNB2ZMoxmuWSuj8zvj18Pr7wp8bNe0q68Y32rOLDT5PtE9rBG3KP8uI0C8fSmfAe0a3fxnE1w0hGtRfMVAz/oNt6V9kfFD9k/wT8VfGlx451bxf4s0u+ureG2ki02e0WErECFOJbeRs8nPzY9q8N8M/BvQ/h/48+IfhPTdf1u9t7PWLMpPeyQNM2/TLNzuMcSLwWIGFHAHXrX32V59Sq4WjgZcznG7b6fa879ex5WOocsHKO2h80+JF/wCK98Xc5/4mw/8ASaCvR/2f/wDkSLv/ALDeof8Ao41xPjPTYbP4keMreOaVlTVhy2M/8esHoK7j4AoF8E3i88a3qP8A6ONfW1Jc2DoNeZ59Zfu/uPI4P+P7Wv8AsPav/wCl89e0fAv/AJJR4f8A+uMv/o568Xh/4/ta/wCw9q//AKXz17R8C/8AklHh/wD64y/+jnqsT/u+G/wfpEmv8Pz/AMzvKKKK4zjCiiigAooooAKKKKACiiigApy02nLQCHR/fb6D+tdR4P8A9Xef9dF/9Brl4/vt9B/Wuo8H/wCrvP8Arov/AKDXHi/gNI7np37M/wB74mf9jmn/AKZNKr2mvFv2Z/vfEz/sc0/9MmlV7TX5jjP95qf4n+Z9Xh/4MfRfkFFFFcxsFFFFABRRRQB5L4w+Atx4m8aan4y034i6rokuqx28c1vbWVtKn7lNinMqMc9emOtZf/DOXiD/AKLXr/8A4KtP/wDjNe3UV0QxdenHljNpeplKhTk+aUU2eI/8M5eIP+i16/8A+CrT/wD4zR/wzl4g/wCi16//AOCrT/8A4zXt1FV9dxP/AD8f3sX1aj/KvuPEf+GcvEH/AEWvX/8AwVaf/wDGaP8AhnLxB/0WvX//AAVaf/8AGa9uoo+u4n/n4/vYfVqP8q+48R/4Zy8Qf9Fr1/8A8FWn/wDxmquqfswanrOm3ej6j8ZtfltL6CS2nj/sywXdG6lWGRECMgnkc17xRSeNxD/5eP72H1eivsr7ivp1p/Z+n2tj5nmfZoUh3Yxu2qBnHbpViiiuY2CiiigAooooA8Ks/wBmPUNNia20v4va5aWxmlmWFNNsmVDJIzsAXjZsbmPUmvzu0PQ5o/BNop1aZtunj/lmnPyfSv2Gr5Y1L9gv4a6Z4fu1s/iJ4/SO2tJPLj+06eVAVDgf8eecceua+o4fz6OV1JyxHNJNWVtbfe0ctXDRl8KSPAtPix+zvbfvCceC0/8ASEV8/eKR/wAW11X/ALAs3/og19VW/hCxh/Z0jZb69Pl+CgRlk5xY9/lr5d8VW6r8M9WO5uNEm9P+eBr77KK8alGtb+T9GeNSjaT9T6E+NX/JLfEP/Xsv/oxa8M1D/XaR/wBh3Sf/AEvgr3T41L/xa3xD/wBey/8Aoxa8L1D/AF2kf9h3Sf8A0vgrpwv8DE/4P0kY0Ph+f+R9U0jKrqVdQwPYilorjOMoXHh/Qbr/AI+tEsJs/wDPS2Rv5iq//CJ+H1/1Oni3/wCveR4f/QCK16Knki+g+ZnP3ngjRr5dk8t86+k1084/KUtVIfD1LfnTfFGs2eOixyoqD/gKqoP411tFS6UH0HzyOVXQfHlof9D8eQXCjol9pSyf+PRuh/PNbWir4gW3ceIpNPkuBJ8jWUbohTA5Ickg5zxk9q0KKcYKO1/vYnK4UUUVYgooooAcvSnxf6taYvSnxf6tallHTX3/ACTu4/7Ar/8Aog19IfCz/kmPhD/sA6f/AOk6V8333/JO7j/sCv8A+iDX0h8LP+SY+EP+wDp//pOlfn+f/FT+f6Hu5XtL5HUUUUV88esFFFFABXh//DNN7b3mozaT8WtcsLbUNSvdT+zJp9lIsT3VzJcSKrPEWIDytjJJxivcKK0p1alF81N2fkTOEaitJXPyNsfDdxaJcWra1PKYby6jMjRRgvidxkgDAz7V6n8NYiPgP4c/eH/kV7ft/wBOwr6MuP2EfhvPdXF1H8QvHtuLmeS4MUdzp+xC7lyF3WZOMsepNePfDrwdYx/Afw/i/vTt8LwdWj7Ww/2K/RMNn1HHUqdKKlenGzvbyWmvkeLjqHs0n3Z8nzL/AMW3k/7AZ/8ASevoT4g/8kN17/sWZ/8A0mNeCXFsq/DaX5m40M+n/Pv9K98+IS/8WN17/sWZ/wD0mNfR5o704/4Dlqr3o+v+R4V4k/5Bf/bxbf8Ao9K+sa+TvEn/ACC/+3i2/wDR6V9Y105t/vP/AG6vzkY4jZfP9AooorzjmCiiigAooooAKKKKACiiigApy9KbTl6UDQ+L/Vj8f512ui/8i9bf9e/9K4qL/Vj8f512ui/8i9bf9e/9K8/GbI0ge0/s9/8AJAvhp/2J+jf+kUVegV5/+z3/AMkC+Gn/AGJ+jf8ApFFXoFflh9gFFFFABRRRQAUUUUAeEaf+zBqGk2q2Ol/GDXba1RnaOFdNsmCbmLEAvGWPJPUmrP8Awzl4g/6LXr//AIKtP/8AjNe3UV0rGYiKspv72YvD0nq4r7jxH/hnLxB/0WvX/wDwVaf/APGaP+GcvEH/AEWvX/8AwVaf/wDGa9uop/XcT/z8f3sPq1H+VfceI/8ADOXiD/otev8A/gq0/wD+M0f8M5eIP+i16/8A+CrT/wD4zXt1FH13E/8APx/ew+rUf5V9x4j/AMM5eIP+i16//wCCrT//AIzVrQf2ebrS/FWheJtU+J2sav8A2Dem+gtZ7G0ijaQwyQ8mKNW+5M/frivZKKmWLrzjyym2vUaoUou6ivuCiiiuc1CiiigAooooAKKKKACiiigAooooAKKKKACiiigAooooAKKKKACiiigAooooAKKKKACiiigAooooAKKKKACiiigAooooAKKKKACiiigAooooAK8v8Tfs9+EPE3ijVfF0uv8AijT73WZIprtNP1MwxO8cMcKtt2nB2RIOvavUKKqM5Qd4uzFKKkrSVz8u/ih4E07w38XfHOi2uq6tcRW2sKqyXV15krZtLc/M2Oetb3wGtUh8G30aySELrmojLNk/6419l+K/2Vvgp418Saj4u8QeH9Tl1TVZRNdywa9f2yyOEVAfLimVB8qKOAOleDeBfh34U8NyeKdB0mzuY7Kw8U6rBAsl7PKyotwwALu5Zj7kk197lufQxFGlhOV3gtXfc8jMKPLDmXVnybCo+3a31/5D2r/+l89ez/Av/klHh/8A64y/+jnryiSzt4dY8QRRqQqeItZVfmJ4GoT+9es/AxV/4VT4f/64y/8Ao56+ury5sNhv8H6RODEL3fn/AJndUU7aKNorlOKw2inbRRtFAWG0U7aKNooCw2inbRRtFAWG0U7aKNooCw2nLRtFGMUAkOj++30H9a6jwf8A6u8/66L/AOg1y8f32+g/rXUeD/8AV3n/AF0X/wBBrjxfwFx3PTv2Z/vfEz/sc0/9MmlV7TXi37M/3viZ/wBjmn/pk0qvaa/McZ/vNT/E/wAz6vD/AMGPovyCiiiuY2CiiigAooooAKKKKACiiigAooooAKKKKACiiigAooooAKKKKACoby1jvrOexmZglxG0TFeoDAg4z35qaigD5y+I37Mfgvw/8JvE66b4s8ZpDpvh29+zwHWCYlWO2fam3b93AAx6V+f3i7Q7eP4Y6xILq6JXQ5zgy8cQGv2B1rSNP8QaPfaDq0JmstStpbO5jDFd8UilHXIIIypIyDmvmH45/shfAfw98EfHusaT4d1iK503wxqVxbFvEmpOqPHayMuUacqwBA4IIPcV9Jkme/2ZGrGqnLnVlrtv39TnqYeMrcuh4p8bIlX4V+Ijub/j2Xv/ANNFrwrUF/faT1/5Dmk/+l8FfUPx68N6Tb/CHxPNFBIHS0BGZ3P/AC0XsTXzPqkMavpLBTn+3dI/iP8Az/wV+iZfWVXD4n/D+kjwaCtH5/5H0/RTtoo2isjhsNop20UbRQFhtFO2ijaKAsNop20UbRQFhtFO2ijaKAsNop20UbRQFgXpT4v9WtMp8X+rWpYzpr7/AJJ3cf8AYFf/ANEGvpD4Wf8AJMfCH/YB0/8A9J0r5vvv+Sd3H/YFf/0Qa+kPhZ/yTHwh/wBgHT//AEnSvz/P/ip/P9D3cr2l8jqKKKK+ePWCiiigAooooAK8F1T9ljwNoXg28sdL8V+NYLWw02SO3gXWjsREiIVcbegAAr3qoby1hv7OexuVLQ3EbQyAHGVYEHntwauFSdP4XYmUYy+JXPx5vNBt4/hrMwurs7dDY8y9cW/0r3D4hQr/AMKM175m/wCRZn7/APTsa+gfih+x38A9D+Ffi7UNL8NaxDLp/h+/mt/+Kk1JkRo7ZyvymcqQCBwRivK/ib4a0eH4BeJJo4JQyeFrhl/fyHkWp9TX6HTz6nmUGoxa5Y21PGxtH2coev8AkfLniRR/ZZ6/8fFt/wCj0r6vr5Z8TQRLpJIU/wDHxbfxH/nulfVG0V9bmrvif+3V+cjgxC0Xz/QbRTtoo2ivPOWw2inbRRtFAWG0U7aKNooCw2inbRRtFAWG0U7aKNooCw2nL0o2iigErD4v9WPx/nXa6L/yL1t/17/0riov9WPx/nXa6L/yL1t/17/0rz8ZsjSB7T+z3/yQL4af9ifo3/pFFXoFef8A7Pf/ACQL4af9ifo3/pFFXoFflh9gFFFFABRRRQAUUUUAFFFFABRRRQAUUUUAFFFFABRRRQAUUUUAFFFFABRRRQAUUUUAFFFFABRRRQAUUUUAFFFFABRRRQAUUUUAFFFFABRRRQAUUUUAFFFFABRRRQAUUUUAFFFFABRRRQAUUUUAFFFFABRRRQAV5tqX7Ovwg1jU7zWL/wAL3L3eoXMt3cOmr3sYeWRy7ttSYKuWYnAAHNek0U1Jx2E0nuflHq3hHw/pfinxVpljZvHbWnijXIIVNxKxVF1K4CjLMSeAOSSa9E+B9vCvwr0FVUgCOUDk/wDPZ6+09Q/Z1+BerahdatqXwp8N3N5fTyXVzPJYozyyyMWd2PdmYkk9yTXzd8MdD8Kaf4KsrGKwsII4JruNIsKoRRcygADsMYr77L8/+twp4fkt7ONr33+FdtNjx8xo8sebuyv5Mf8Ad/WjyY/7v612X9n+F/8AnjYfmtH9n+F/+eNh+a16n11dvxPI5DjfJj/u/rR5Mf8Ad/Wuy/s/wv8A88bD81o/s/wv/wA8bD81o+urt+Ichxvkx/3f1o8mP+7+tdl/Z/hf/njYfmtH9n+F/wDnjYfmtH11dvxDkON8mP8Au/rR5Mf939a7L+z/AAv/AM8bD81o/s/wv/zxsPzWj66u34hyHG+TH/d/WjyY/wC7+tdl/Z/hf/njYfmtH9n+F/8AnjYfmtH11dvxDkON8mP+7+tHkx/3f1rsv7P8L/8APGw/NaP7P8L/APPGw/NaPrq7fiHIccqKudo6103g/wD1d5/10X/0Grf9n+F/+eNh+a1YtTo1irLZyWsQblgrqM/rWVXEqrHlsNRsd3+zP974mf8AY5p/6ZNKr2mvFP2ZJEk/4WZJG6up8ZphlOQf+JJpVe11+dYz/eKn+J/mfU4f+DH0X5BRRRXMbBRRRQAUUUUAFFFFABRRRQAUUUUAFFFFABRRRQAUUUUAFFFFABRRRQAVQ17Q9J8UaHqHhvXrNbvTdVtZbK8t2YgTQyKUdCQQQCpI4Oeav0UAfMX7Sn7Pfwl0H4F+MNY0vw3dRXdpYiSF21i9cK3mJ/C0xU/iK+KNb0bTrddLmhgYOuu6Rg+Yx/5iEA7mv1k1/wAP6L4p0e68P+ItNg1DTb1fLuLWdd0cq5B2sO4yBxXz5+0F8A/gv4Z+GM2ueH/hl4e0+/tdb0Ew3NvZqkke7V7RTgjplWI/Gvo8lzx5dTqUJR5vaWV72tuuzvuc1eipK60seaeTH/d/WjyY/wC7+tdl/Z/hf/njYfmtH9n+F/8AnjYfmtfYfXV2/E+Y5DjfJj/u/rR5Mf8Ad/Wuy/s/wv8A88bD81o/s/wv/wA8bD81o+urt+Ichxvkx/3f1o8mP+7+tdl/Z/hf/njYfmtH9n+F/wDnjYfmtH11dvxDkON8mP8Au/rR5Mf939a7L+z/AAv/AM8bD81o/s/wv/zxsPzWj66u34hyHG+TH/d/WjyY/wC7+tdl/Z/hf/njYfmtH9n+F/8AnjYfmtH11dvxDkON8mP+7+tHkx/3f1rsv7P8L/8APGw/NaP7P8L/APPGw/NaPrq7fiHIcb5Mf939acoCjaOgrsP7P8L/APPGw/NaP7P8L/8APGw/NaX11dvxDkKd9/yTu4/7Ar/+iDX0h8LP+SY+EP8AsA6f/wCk6V86eJLjT4/Cmq29vcQBV0+dERXHA8tgABX0X8LP+SY+EP8AsA6f/wCk6V8dn/xU/n+h7WV7S+R1FFFFfPHrBRRRQAUUUUAFFFFAFPWdI0/xBo99oOsW/wBosNStpbO6h3MvmQyKUdcqQRlSRkEHnivnz4//ALOvwh0n4G+P9UsPDN1Hc2nhvUZoXOs3zhXW3cg7WmIPI6EEV9H1T1jR9L8QaTd6HrdjDe6ffwtb3VtMu6OaJhhkYd1IJBHcGqjJx2Ymk9z8kPFmi6bDojyxwMGW4tiD5rn/AJbp6mvp3yY/7v616f8AtAfs+/BLQPhD4g1jRfhf4dsr60W3kguIbJVeNvtMQyCOhrC/s/wv/wA8bD81r9HocQLNJyqez5bJLe/fyR4OYUfZ8qv3ON8mP+7+tHkx/wB39a7L+z/C/wDzxsPzWj+z/C//ADxsPzWur66u34nnchxvkx/3f1o8mP8Au/rXZf2f4X/542H5rR/Z/hf/AJ42H5rR9dXb8Q5DjfJj/u/rR5Mf939a7L+z/C//ADxsPzWj+z/C/wDzxsPzWj66u34hyHG+TH/d/WjyY/7v612X9n+F/wDnjYfmtH9n+F/+eNh+a0fXV2/EOQ43yY/7v60eTH/d/Wuy/s/wv/zxsPzWj+z/AAv/AM8bD81o+urt+Ichxvkx/wB39aPJj/u/rXZf2f4X/wCeNh+a0f2f4X/542H5rR9dXb8Q5Dj1UKNq9K7PRf8AkXrb/r3/AKUz+z/C/wDzxsPzWrP2jTYbU29vcW6oqEKqyDj2HNc9euqtioxsex/s9/8AJAvhp/2J+jf+kUVegV5/+z3/AMkC+Gn/AGJ+jf8ApFFXoFfmh9cFFFFABRRRQAUUUUAFFFFABRRRQAUUUUAFFFFABRRRQAUUUUAFFFFABRRRQAUUUUAFFFFABRRRQAUUUUAFFFFABRRRQAUUUUAFFFFABRRRQAUUUUAFFFFABRRRQAUUUUAFFFFABRRRQAUUUUAFFFFABRRRQAUUUUAFcPP8C/gldTSXNz8HfA8s0rGSSSTw9aMzsTksSY8kk967iigDhP8AhQvwL/6Iv4E/8Jyz/wDjdH/ChfgX/wBEX8Cf+E5Z/wDxuu7ooA4T/hQvwL/6Iv4E/wDCcs//AI3R/wAKF+Bf/RF/An/hOWf/AMbru6KAOE/4UL8C/wDoi/gT/wAJyz/+N0f8KF+Bf/RF/An/AITln/8AG67uigDhP+FC/Av/AKIv4E/8Jyz/APjdH/ChfgX/ANEX8Cf+E5Z//G67uigDhP8AhQvwL/6Iv4E/8Jyz/wDjdH/ChfgX/wBEX8Cf+E5Z/wDxuu7ooA4T/hQvwL/6Iv4E/wDCcs//AI3R/wAKF+Bf/RF/An/hOWf/AMbru6KAOE/4UL8C/wDoi/gT/wAJyz/+N0f8KF+Bf/RF/An/AITln/8AG67uigDJ8NeEfCfguxk0vwf4Y0nQrKWY3ElvptlHaxPKVVS5SNQCxCqM4zhR6VrUUUAFFFFABRRRQAUUUUAFFFFABRRRQAUUUUAFFFFABRRRQAUUUUAFFFFABRRRQAUUUUAFUNc0HQvFGlz6H4l0Ww1bTbnb51nfWyTwS7WDLujcFWwyqwyOCAe1X6KAOE/4UL8C/wDoi/gT/wAJyz/+N0f8KF+Bf/RF/An/AITln/8AG67uigDhP+FC/Av/AKIv4E/8Jyz/APjdH/ChfgX/ANEX8Cf+E5Z//G67uigDhP8AhQvwL/6Iv4E/8Jyz/wDjdH/ChfgX/wBEX8Cf+E5Z/wDxuu7ooA4T/hQvwL/6Iv4E/wDCcs//AI3R/wAKF+Bf/RF/An/hOWf/AMbru6KAOE/4UL8C/wDoi/gT/wAJyz/+N0f8KF+Bf/RF/An/AITln/8AG67uigDhP+FC/Av/AKIv4E/8Jyz/APjdH/ChfgX/ANEX8Cf+E5Z//G67uigDhP8AhQvwL/6Iv4E/8Jyz/wDjdH/ChfgX/wBEX8Cf+E5Z/wDxuu7ooA4T/hQvwL/6Iv4E/wDCcs//AI3XbWtra2NrDY2NtFb21vGsUMMSBEjRRhVVRwAAAAB0xUtFABRRRQAUUUUAFFFFABRRRQAUUUUAU9Y0fSPEGmz6Nr2lWepafdLsntLyBZoZVyDhkcFWGQDgjtXIf8KF+Bf/AERfwJ/4Tln/APG67uigDhP+FC/Av/oi/gT/AMJyz/8AjdH/AAoX4F/9EX8Cf+E5Z/8Axuu7ooA4T/hQvwL/AOiL+BP/AAnLP/43R/woX4F/9EX8Cf8AhOWf/wAbru6KAOE/4UL8C/8Aoi/gT/wnLP8A+N0f8KF+Bf8A0RfwJ/4Tln/8bru6KAOE/wCFC/Av/oi/gT/wnLP/AON0f8KF+Bf/AERfwJ/4Tln/APG67uigDhP+FC/Av/oi/gT/AMJyz/8AjdH/AAoX4F/9EX8Cf+E5Z/8Axuu7ooA4T/hQvwL/AOiL+BP/AAnLP/43R/woX4F/9EX8Cf8AhOWf/wAbru6KAOE/4UL8C/8Aoi/gT/wnLP8A+N0f8KF+Bf8A0RfwJ/4Tln/8bru6KAK+n6fY6TY22l6XZQWdlZwpb29vbxrHFDEihUREUAKoAAAAwABViiigAooooAKKKKACiiigAooooAKKKKACiiigAooooAKKKKACiiigAooooAKKKKACiiigAooooAKKKKACiiigAooooAKKKKACiiigAooooAKKKKACiiigAooooAKKKKACiiigAooooAKKKKACiiigAooooAKKKKACiiigAooooAKKKKACiiigAooooAKKKKACiiigAooooAKKKKACiiigAooooAKKKKACiiigAooooAKKKKACiiigAooooAKKKKACiiigAooooAKKKKACiiigAooooAKKKKACiiigAooooAKKKKACiiigAooooAKKKKACiiigAooooAKKKKACiiigAooooAKKKKACiiigAooooAKKKKACiiigAooooAKKKKACiiigAooooAKKKKACiiigAooooAKKKKACiiigAooooAKKKKACiiigAooooAKKKKACiiigAooooAKKKKACiiigAooooAKKKKACiiigAooooAKKKKACiiigAooooAKKKKACiiigAooooAKKKKACiiigAooooAKKKKACiiigAooooAKKKKACiiigAooooAKKKKACiiigAooooAKKKKACiiigAooooAKKKKACiiigAooooAKKKKACiiigAooooAKKKKACiiigAooooAKKKKACiiigAooooAKKKKACiiigAooooAKKKKACiiigAooooAKKKKACiiigAooooAKKKKACiiigAooooAKKKKACiiigAooooAKKKKACiiigAooooAKKKKACiiigAooooAKKKKACiiigAooooAKKKKACiiigAooooAKKKKACiiigAooooAKKKKACiiigD//Z;imageBackground=none;" vertex="1" parent="1">
          <mxGeometry x="316.55" y="99" width="747.1" height="171" as="geometry" />
        </mxCell>
        <mxCell id="lw9uACYRkFeqBbF8YDV_-6" value="Conv 3*3" style="text;html=1;align=center;verticalAlign=middle;whiteSpace=wrap;rounded=0;" vertex="1" parent="1">
          <mxGeometry x="229.14000000000001" y="260" width="60" height="30" as="geometry" />
        </mxCell>
        <mxCell id="lw9uACYRkFeqBbF8YDV_-7" value="MBConv1 3*3" style="text;html=1;align=center;verticalAlign=middle;whiteSpace=wrap;rounded=0;" vertex="1" parent="1">
          <mxGeometry x="316.55" y="260" width="80" height="30" as="geometry" />
        </mxCell>
        <mxCell id="lw9uACYRkFeqBbF8YDV_-8" value="MBConv6 3*3" style="text;html=1;align=center;verticalAlign=middle;whiteSpace=wrap;rounded=0;" vertex="1" parent="1">
          <mxGeometry x="414" y="260" width="80" height="30" as="geometry" />
        </mxCell>
        <mxCell id="lw9uACYRkFeqBbF8YDV_-9" value="MBConv6 5*5" style="text;html=1;align=center;verticalAlign=middle;whiteSpace=wrap;rounded=0;" vertex="1" parent="1">
          <mxGeometry x="530" y="260" width="80" height="30" as="geometry" />
        </mxCell>
        <mxCell id="lw9uACYRkFeqBbF8YDV_-10" value="MBConv6 3*3" style="text;html=1;align=center;verticalAlign=middle;whiteSpace=wrap;rounded=0;" vertex="1" parent="1">
          <mxGeometry x="650.1" y="260" width="80" height="30" as="geometry" />
        </mxCell>
        <mxCell id="lw9uACYRkFeqBbF8YDV_-11" value="MBConv6 5*5" style="text;html=1;align=center;verticalAlign=middle;whiteSpace=wrap;rounded=0;" vertex="1" parent="1">
          <mxGeometry x="770" y="260" width="80" height="30" as="geometry" />
        </mxCell>
        <mxCell id="lw9uACYRkFeqBbF8YDV_-12" value="MBConv6 5*5" style="text;html=1;align=center;verticalAlign=middle;whiteSpace=wrap;rounded=0;" vertex="1" parent="1">
          <mxGeometry x="880" y="260" width="80" height="30" as="geometry" />
        </mxCell>
        <mxCell id="lw9uACYRkFeqBbF8YDV_-13" value="MBConv6 3*3" style="text;html=1;align=center;verticalAlign=middle;whiteSpace=wrap;rounded=0;" vertex="1" parent="1">
          <mxGeometry x="983.65" y="260" width="80" height="30" as="geometry" />
        </mxCell>
      </root>
    </mxGraphModel>
  </diagram>
</mxfile>
